<?xml version="1.0" standalone="no"?>
<!DOCTYPE svg PUBLIC "-//W3C//DTD SVG 20010904//EN"
 "http://www.w3.org/TR/2001/REC-SVG-20010904/DTD/svg10.dtd">
<svg version="1.0" xmlns="http://www.w3.org/2000/svg"
 width="700.000000pt" height="700.000000pt" viewBox="0 0 700.000000 700.000000"
 preserveAspectRatio="xMidYMid meet">
<metadata>
Created by potrace 1.14, written by Peter Selinger 2001-2017
</metadata>
<g transform="translate(0.000000,700.000000) scale(0.100000,-0.100000)"
fill="#000000" stroke="none">
<path d="M0 3500 l0 -3500 3500 0 3500 0 0 3500 0 3500 -3500 0 -3500 0 0
-3500z m3430 0 l0 -1290 -597 2 -598 3 -3 883 -2 882 -415 0 -415 0 0 -885 0
-885 -595 0 -595 0 0 1290 0 1290 1610 0 1610 0 0 -1290z m1423 1278 c2 -7 87
-320 187 -695 101 -376 185 -682 186 -680 1 1 84 304 184 672 100 369 186 680
191 693 l9 22 612 -2 613 -3 0 -1285 0 -1285 -432 -3 -433 -2 -2 707 -3 708
-194 -707 -195 -708 -348 0 -347 0 -14 48 c-8 26 -97 344 -198 707 l-184 660
-3 -707 -2 -708 -430 0 -430 0 0 1290 0 1290 614 0 c482 0 615 -3 619 -12z"/>
</g>
</svg>
