<svg width="24" height="24" viewBox="0 0 24 24" fill="none" xmlns="http://www.w3.org/2000/svg">
<path fill-rule="evenodd" clip-rule="evenodd" d="M10.56 9.56V19.44H20.44V9.56H10.56ZM9 9.404C9 8.62859 9.62859 8 10.404 8H20.596C21.3715 8 22 8.62862 22 9.404V19.596C22 20.3714 21.3714 21 20.596 21H10.404C9.62862 21 9 20.3715 9 19.596V9.404Z" fill="currentColor"/>
<path fill-rule="evenodd" clip-rule="evenodd" d="M6 6.404C6 5.62859 6.62859 5 7.404 5H14.44H16.018H17.596C18.3715 5 19 5.62862 19 6.404V8.9C19 9.33078 18.4308 9 18 9C17.5692 9 17.44 9.33078 17.44 8.9V6.56H7.56V16.44H9.9C10.3308 16.44 9.5 16.5692 9.5 17C9.5 17.4308 10.3308 18 9.9 18H7.404C6.62862 18 6 17.3715 6 16.596V6.404Z" fill="currentColor"/>
<path fill-rule="evenodd" clip-rule="evenodd" d="M3 3.404C3 2.62859 3.62859 2 4.404 2H14.596C15.3715 2 16 2.62862 16 3.404V5.9C16 6.33078 14.4308 6 14 6C13.5692 6 14.44 6.33078 14.44 5.9V5V3.56H4.56V13.44H6.9C7.33078 13.44 7 14.0692 7 14.5C7 14.9308 7.33078 15 6.9 15H4.404C3.62862 15 3 14.3715 3 13.596V3.404Z" fill="currentColor"/>
</svg>
