<svg width="120" height="40" viewBox="0 0 120 40" fill="none" xmlns="http://www.w3.org/2000/svg">
<path d="M0 5C0 2.23858 2.23858 0 5 0H115C117.761 0 120 2.23858 120 5V35C120 37.7614 117.761 40 115 40H5C2.23858 40 0 37.7614 0 35V5Z" fill="currentColor"/>
<path d="M24.769 20.3008C24.7797 19.4662 25.0014 18.6478 25.4135 17.9218C25.8255 17.1959 26.4145 16.5859 27.1256 16.1488C26.6738 15.5036 26.0779 14.9727 25.385 14.5981C24.6922 14.2236 23.9216 14.0157 23.1344 13.9911C21.4552 13.8148 19.8272 14.9959 18.9715 14.9959C18.0992 14.9959 16.7817 14.0086 15.363 14.0378C14.4453 14.0674 13.551 14.3343 12.7671 14.8123C11.9832 15.2904 11.3365 15.9633 10.8901 16.7656C8.95607 20.1141 10.3987 25.0351 12.2513 27.7417C13.1782 29.0671 14.2615 30.5475 15.6789 30.495C17.066 30.4375 17.584 29.6105 19.2583 29.6105C20.9171 29.6105 21.4031 30.495 22.8493 30.4616C24.3377 30.4375 25.2754 29.1304 26.1698 27.7925C26.8358 26.8481 27.3483 25.8044 27.6882 24.7C26.8235 24.3343 26.0856 23.7221 25.5665 22.9398C25.0474 22.1575 24.77 21.2397 24.769 20.3008Z" fill="white"/>
<path d="M22.0374 12.2108C22.8489 11.2366 23.2487 9.98445 23.1519 8.72021C21.9121 8.85044 20.7668 9.44299 19.9443 10.3798C19.5422 10.8375 19.2342 11.3699 19.0379 11.9467C18.8417 12.5235 18.7611 13.1333 18.8006 13.7412C19.4208 13.7476 20.0343 13.6132 20.5949 13.3481C21.1556 13.083 21.6488 12.6942 22.0374 12.2108Z" fill="white"/>
<path d="M42.3025 27.1397H37.5691L36.4324 30.4961H34.4275L38.9109 18.0781H40.9939L45.4773 30.4961H43.4382L42.3025 27.1397ZM38.0593 25.5908H41.8113L39.9617 20.1436H39.91L38.0593 25.5908Z" fill="white"/>
<path d="M55.1599 25.9699C55.1599 28.7834 53.6541 30.591 51.3816 30.591C50.806 30.6211 50.2335 30.4885 49.7297 30.2084C49.2259 29.9283 48.8112 29.5119 48.533 29.007H48.49V33.4914H46.6316V21.4426H48.4305V22.9485H48.4646C48.7556 22.446 49.1773 22.0318 49.6849 21.7499C50.1926 21.4681 50.7671 21.3291 51.3474 21.3479C53.6453 21.3479 55.1599 23.1643 55.1599 25.9699ZM53.2498 25.9699C53.2498 24.1369 52.3025 22.9319 50.8572 22.9319C49.4373 22.9319 48.4822 24.1623 48.4822 25.9699C48.4822 27.7942 49.4373 29.0158 50.8572 29.0158C52.3025 29.0158 53.2498 27.8196 53.2498 25.9699Z" fill="white"/>
<path d="M65.1248 25.9699C65.1248 28.7834 63.6189 30.591 61.3465 30.591C60.7708 30.6211 60.1983 30.4885 59.6945 30.2084C59.1907 29.9283 58.776 29.5119 58.4978 29.007H58.4548V33.4914H56.5964V21.4426H58.3953V22.9484H58.4294C58.7204 22.446 59.1421 22.0318 59.6498 21.7499C60.1574 21.4681 60.7319 21.3291 61.3123 21.3479C63.6101 21.3479 65.1248 23.1643 65.1248 25.9699ZM63.2146 25.9699C63.2146 24.1369 62.2674 22.9318 60.822 22.9318C59.4021 22.9318 58.447 24.1623 58.447 25.9699C58.447 27.7942 59.4021 29.0158 60.822 29.0158C62.2674 29.0158 63.2146 27.8195 63.2146 25.9699H63.2146Z" fill="white"/>
<path d="M71.7107 27.0362C71.8484 28.2676 73.0447 29.0762 74.6795 29.0762C76.2459 29.0762 77.3728 28.2676 77.3728 27.1572C77.3728 26.1934 76.6931 25.6162 75.0838 25.2207L73.4744 24.833C71.1941 24.2822 70.1355 23.2158 70.1355 21.4854C70.1355 19.3428 72.0027 17.8711 74.6541 17.8711C77.2781 17.8711 79.0769 19.3428 79.1375 21.4854H77.2615C77.1492 20.2461 76.1248 19.4981 74.6277 19.4981C73.1306 19.4981 72.1062 20.2549 72.1062 21.3565C72.1062 22.2344 72.7605 22.751 74.3611 23.1465L75.7292 23.4824C78.2771 24.0849 79.3357 25.1084 79.3357 26.9248C79.3357 29.248 77.4851 30.7031 74.5417 30.7031C71.7878 30.7031 69.9285 29.2822 69.8083 27.0361L71.7107 27.0362Z" fill="white"/>
<path d="M83.3464 19.2998V21.4424H85.0681V22.9141H83.3464V27.9053C83.3464 28.6807 83.6912 29.042 84.448 29.042C84.6524 29.0384 84.8564 29.0241 85.0593 28.999V30.4619C84.719 30.5255 84.3732 30.5543 84.0271 30.5478C82.1941 30.5478 81.4792 29.8593 81.4792 28.1035V22.9141H80.1628V21.4424H81.4792V19.2998H83.3464Z" fill="white"/>
<path d="M86.0652 25.9697C86.0652 23.1211 87.743 21.3311 90.3592 21.3311C92.9842 21.3311 94.6541 23.1211 94.6541 25.9697C94.6541 28.8262 92.993 30.6084 90.3592 30.6084C87.7263 30.6084 86.0652 28.8262 86.0652 25.9697ZM92.7606 25.9697C92.7606 24.0156 91.865 22.8623 90.3592 22.8623C88.8533 22.8623 87.9588 24.0244 87.9588 25.9697C87.9588 27.9316 88.8533 29.0762 90.3592 29.0762C91.865 29.0762 92.7605 27.9316 92.7605 25.9697H92.7606Z" fill="white"/>
<path d="M96.1863 21.4425H97.9587V22.9835H98.0017C98.1217 22.5022 98.4036 22.0769 98.8002 21.779C99.1968 21.4811 99.6838 21.3288 100.179 21.3478C100.394 21.347 100.607 21.3703 100.816 21.4171V23.1554C100.546 23.0728 100.264 23.0348 99.9812 23.0431C99.7112 23.0321 99.4421 23.0797 99.1922 23.1826C98.9424 23.2855 98.7178 23.4412 98.5338 23.6391C98.3498 23.837 98.2108 24.0724 98.1264 24.3291C98.042 24.5857 98.0141 24.8576 98.0447 25.1261V30.4962H96.1863L96.1863 21.4425Z" fill="white"/>
<path d="M109.385 27.8369C109.135 29.4805 107.534 30.6084 105.486 30.6084C102.852 30.6084 101.218 28.8437 101.218 26.0127C101.218 23.1729 102.861 21.3311 105.408 21.3311C107.913 21.3311 109.488 23.0518 109.488 25.7969V26.4336H103.094V26.5459C103.064 26.8791 103.106 27.2148 103.216 27.5306C103.326 27.8464 103.502 28.1352 103.733 28.3778C103.963 28.6203 104.242 28.8111 104.552 28.9374C104.862 29.0637 105.195 29.1226 105.529 29.1103C105.968 29.1515 106.409 29.0498 106.786 28.8203C107.162 28.5909 107.455 28.246 107.62 27.8369L109.385 27.8369ZM103.102 25.1348H107.629C107.645 24.8352 107.6 24.5354 107.495 24.2541C107.391 23.9729 107.229 23.7164 107.02 23.5006C106.812 23.2849 106.561 23.1145 106.284 23.0003C106.006 22.8861 105.708 22.8305 105.408 22.8369C105.105 22.8351 104.805 22.8933 104.525 23.008C104.245 23.1227 103.991 23.2918 103.776 23.5054C103.562 23.7191 103.392 23.973 103.276 24.2527C103.161 24.5323 103.102 24.8321 103.102 25.1348V25.1348Z" fill="white"/>
<path d="M36.7383 11.2534H37.5361C37.6735 11.2705 37.8129 11.259 37.9455 11.2195C38.0782 11.1801 38.2013 11.1136 38.307 11.0242C38.4127 10.9349 38.4987 10.8246 38.5596 10.7003C38.6206 10.576 38.6552 10.4405 38.6611 10.3022C38.6611 9.75193 38.2471 9.39646 37.5449 9.39646C37.4042 9.3768 37.261 9.38553 37.1237 9.42214C36.9864 9.45875 36.8579 9.52249 36.7456 9.60961C36.6334 9.69672 36.5397 9.80544 36.4702 9.92935C36.4007 10.0533 36.3567 10.1898 36.3408 10.331H35.4648C35.4799 10.0747 35.5476 9.82428 35.6636 9.59527C35.7797 9.36626 35.9417 9.16359 36.1394 8.99989C36.3372 8.83618 36.5666 8.71494 36.8133 8.64372C37.0599 8.5725 37.3186 8.55282 37.5732 8.58591C38.748 8.58591 39.5752 9.24362 39.5752 10.1904C39.578 10.5076 39.4719 10.8161 39.2746 11.0645C39.0773 11.3129 38.8008 11.486 38.4912 11.5551V11.6255C38.8582 11.6417 39.2038 11.8027 39.4525 12.073C39.7012 12.3434 39.8328 12.7013 39.8184 13.0683C39.7912 13.3322 39.7116 13.588 39.5843 13.8208C39.457 14.0535 39.2845 14.2585 39.077 14.4237C38.8694 14.5889 38.631 14.7111 38.3756 14.7829C38.1202 14.8548 37.8531 14.875 37.5898 14.8423C37.326 14.8782 37.0577 14.8607 36.8008 14.7907C36.5439 14.7208 36.3037 14.5998 36.0946 14.4351C35.8854 14.2703 35.7116 14.0651 35.5834 13.8317C35.4553 13.5983 35.3754 13.3415 35.3486 13.0766H36.2383C36.292 13.6474 36.8164 14.0156 37.5898 14.0156C38.3633 14.0156 38.8682 13.6021 38.8682 13.0191C38.8682 12.4277 38.3926 12.0635 37.5615 12.0635H36.7383V11.2534Z" fill="white"/>
<path d="M40.8291 13.4243C40.8291 12.6138 41.4336 12.1465 42.5039 12.0801L43.7236 12.0098V11.6211C43.7236 11.1455 43.4102 10.877 42.8018 10.877C42.3057 10.877 41.9629 11.0591 41.8633 11.3774H41.0029C41.0937 10.604 41.8223 10.1079 42.8438 10.1079C43.9727 10.1079 44.6094 10.6699 44.6094 11.6211V14.6978H43.7529V14.0649H43.6826C43.5399 14.2919 43.3395 14.477 43.1019 14.6012C42.8643 14.7254 42.5979 14.7843 42.3301 14.7719C42.141 14.7916 41.95 14.7714 41.7692 14.7127C41.5885 14.654 41.422 14.5581 41.2806 14.4311C41.1392 14.3042 41.0259 14.149 40.9482 13.9756C40.8704 13.8021 40.8298 13.6144 40.8291 13.4243ZM43.7236 13.0395V12.6631L42.624 12.7334C42.0039 12.7749 41.7226 12.9858 41.7226 13.3828C41.7226 13.7881 42.0742 14.0239 42.5576 14.0239C42.6993 14.0383 42.8423 14.024 42.9784 13.9819C43.1144 13.9398 43.2405 13.8708 43.3493 13.7789C43.4581 13.6871 43.5473 13.5743 43.6116 13.4473C43.6759 13.3202 43.714 13.1816 43.7236 13.0395Z" fill="white"/>
<path d="M46.9678 10.9429V14.6978H46.0791V10.1948H49.044V10.9428L46.9678 10.9429Z" fill="white"/>
<path d="M54.4297 12.4443C54.4297 13.875 53.7061 14.7719 52.5693 14.7719C52.2903 14.791 52.0116 14.7299 51.7661 14.5959C51.5206 14.4619 51.3185 14.2606 51.1836 14.0156H51.1133V16.1948H50.2246V10.1948H51.0801V10.939H51.1465C51.2838 10.6854 51.4886 10.4747 51.7381 10.3302C51.9877 10.1857 52.2723 10.113 52.5606 10.1201C53.7061 10.1201 54.4297 11.0131 54.4297 12.4443ZM53.5156 12.4443C53.5156 11.4931 53.0654 10.9184 52.3125 10.9184C51.5645 10.9184 51.0967 11.5053 51.0967 12.4482C51.0967 13.3867 51.5645 13.9741 52.3086 13.9741C53.0654 13.9741 53.5156 13.3994 53.5156 12.4443Z" fill="white"/>
<path d="M55.6133 16.3106V15.5454C55.7094 15.5576 55.8063 15.5632 55.9033 15.562C56.0926 15.576 56.2804 15.5197 56.4307 15.4037C56.5811 15.2877 56.6832 15.1203 56.7177 14.9336L56.7841 14.7144L55.1542 10.1948H56.122L57.251 13.7715H57.3213L58.4463 10.1948H59.3886L57.71 14.8838C57.3252 15.9795 56.8994 16.3311 55.9814 16.3311C55.9072 16.3311 55.6963 16.3228 55.6133 16.3106Z" fill="white"/>
<path d="M60.0811 13.42H60.9658C61.0527 13.817 61.4248 14.024 61.9453 14.024C62.5371 14.024 62.9004 13.7633 62.9004 13.358C62.9004 12.9239 62.5742 12.7169 61.9453 12.7169H61.2715V12.0265H61.9336C62.4707 12.0265 62.7441 11.8199 62.7441 11.4435C62.7441 11.1129 62.4795 10.8605 61.9336 10.8605C61.4365 10.8605 61.0732 11.0714 61.0156 11.4269H60.1592C60.2232 11.0184 60.445 10.6514 60.7768 10.4048C61.1086 10.1581 61.524 10.0516 61.9336 10.108C63.0039 10.108 63.6162 10.5919 63.6162 11.3527C63.6212 11.5645 63.5533 11.7717 63.4239 11.9395C63.2945 12.1073 63.1114 12.2256 62.9053 12.2746V12.3449C63.1507 12.3765 63.376 12.4972 63.5384 12.6839C63.7007 12.8707 63.7889 13.1106 63.7861 13.358C63.7861 14.214 63.0576 14.7804 61.9453 14.7804C60.9619 14.7804 60.1631 14.3297 60.0811 13.42Z" fill="white"/>
<path d="M65.0659 14.6978V10.1948H65.9468V13.292H66.0171L68.0923 10.1948H68.9731V14.6978H68.0923V11.584H68.0259L65.9468 14.6978L65.0659 14.6978Z" fill="white"/>
<path d="M73.8257 10.9428H72.4077V14.6977H71.518V10.9428H70.1V10.1948H73.8257V10.9428Z" fill="white"/>
<path d="M78.6127 13.482C78.4916 13.8935 78.2298 14.2494 77.873 14.4875C77.5162 14.7257 77.087 14.8309 76.6606 14.7847C76.3639 14.7926 76.0691 14.7358 75.7966 14.6182C75.5241 14.5007 75.2804 14.3253 75.0825 14.1041C74.8846 13.883 74.7372 13.6214 74.6505 13.3376C74.5638 13.0538 74.5399 12.7545 74.5805 12.4605C74.541 12.1656 74.5653 11.8657 74.6518 11.581C74.7383 11.2964 74.8849 11.0336 75.0818 10.8105C75.2786 10.5874 75.5211 10.4093 75.7928 10.2881C76.0646 10.1669 76.3591 10.1054 76.6567 10.108C77.9096 10.108 78.6664 10.964 78.6664 12.378V12.6881H75.4867V12.7379C75.4727 12.9032 75.4933 13.0696 75.5474 13.2264C75.6014 13.3832 75.6877 13.527 75.8007 13.6485C75.9136 13.77 76.0507 13.8665 76.2032 13.9318C76.3556 13.9972 76.5201 14.0299 76.686 14.0279C76.8984 14.0533 77.1136 14.0149 77.3042 13.9177C77.4947 13.8205 77.6521 13.6689 77.7563 13.482L78.6127 13.482ZM75.4867 12.0308H77.7601C77.7714 11.8798 77.7509 11.7281 77.7 11.5854C77.6491 11.4427 77.569 11.3123 77.4647 11.2024C77.3604 11.0926 77.2343 11.0058 77.0945 10.9475C76.9546 10.8893 76.8042 10.861 76.6527 10.8643C76.499 10.8623 76.3464 10.891 76.2039 10.9489C76.0615 11.0068 75.9321 11.0926 75.8234 11.2014C75.7147 11.3101 75.6289 11.4396 75.5711 11.582C75.5133 11.7245 75.4846 11.8771 75.4867 12.0308H75.4867Z" fill="white"/>
<path d="M82.3804 10.1948H84.4106C85.2915 10.1948 85.8081 10.6411 85.8081 11.3398C85.8095 11.5615 85.7347 11.777 85.5962 11.9501C85.4577 12.1233 85.264 12.2436 85.0474 12.291V12.3613C85.3103 12.3779 85.5569 12.4949 85.7361 12.6881C85.9153 12.8813 86.0134 13.1359 86.0103 13.3994C86.0103 14.185 85.4194 14.6977 84.4312 14.6977H82.3804V10.1948ZM83.2612 10.877V12.043H84.1421C84.6792 12.043 84.936 11.8364 84.936 11.4556C84.936 11.1045 84.7124 10.8769 84.2407 10.8769L83.2612 10.877ZM83.2612 12.6963V14.0156H84.315C84.8404 14.0156 85.1216 13.7837 85.1216 13.3579C85.1216 12.9072 84.8033 12.6963 84.2036 12.6963L83.2612 12.6963Z" fill="white"/>
</svg>
