<svg width="16" height="16" viewBox="0 0 16 16" fill="none" xmlns="http://www.w3.org/2000/svg">
<path fill-rule="evenodd" clip-rule="evenodd" d="M12.4713 5.86422C12.4713 6.70151 12.6926 7.19502 13.1796 7.76373C13.5486 8.18271 13.6666 8.72053 13.6666 9.30402C13.6666 9.88683 13.4751 10.4401 13.0915 10.8893C12.5892 11.4278 11.8809 11.7716 11.1581 11.8313C10.1105 11.9206 9.06236 11.9958 8.00025 11.9958C6.93748 11.9958 5.88995 11.9508 4.84242 11.8313C4.11889 11.7716 3.4106 11.4278 2.90903 10.8893C2.5254 10.4401 2.33325 9.88683 2.33325 9.30402C2.33325 8.72053 2.45185 8.18271 2.82024 7.76373C3.32248 7.19502 3.5292 6.70151 3.5292 5.86422V5.5802C3.5292 4.45889 3.8088 3.72568 4.38458 3.00791C5.24063 1.96113 6.61282 1.33333 7.97043 1.33333H8.03007C9.41683 1.33333 10.8334 1.99135 11.6749 3.08311C12.2208 3.78611 12.4713 4.48844 12.4713 5.5802V5.86422ZM6.04902 13.3739C6.04902 13.0382 6.35711 12.8844 6.64202 12.8186C6.9753 12.7481 9.00609 12.7481 9.33936 12.8186C9.62427 12.8844 9.93236 13.0382 9.93236 13.3739C9.9158 13.6935 9.72829 13.9768 9.46922 14.1568C9.1333 14.4187 8.73907 14.5845 8.32695 14.6443C8.09902 14.6738 7.87507 14.6745 7.6551 14.6443C7.24231 14.5845 6.84808 14.4187 6.51282 14.1561C6.25309 13.9768 6.06558 13.6935 6.04902 13.3739Z" fill="currentColor"/>
</svg>
