<svg width="100" height="30" viewBox="0 0 100 30" fill="none" xmlns="http://www.w3.org/2000/svg">
<path fill-rule="evenodd" clip-rule="evenodd" d="M99.9788 14.8541L100 29.6836H97.3108H94.6214V17.5296V5.37565H49.9998H5.37813V17.5296V29.6836H2.68906H0V14.8887C0 6.75141 0.0252097 0.0688027 0.056134 0.0383556C0.0869742 0.00790846 22.5774 -0.00768928 50.0349 0.00375951L99.9576 0.0245824L99.9788 14.8541ZM50.8105 18.2821C51.1235 18.3538 51.5469 18.4877 51.7515 18.5797C51.956 18.6717 52.301 18.911 52.5181 19.1115C52.7352 19.312 52.99 19.6354 53.0843 19.8302C53.1787 20.025 53.2984 20.2889 53.3505 20.4164C53.4025 20.544 53.4452 21.0023 53.4452 21.4347V22.221L52.0376 22.1982L50.63 22.1755L50.5834 21.5533C50.5577 21.2111 50.4841 20.8498 50.4199 20.7503C50.3556 20.6509 50.2141 20.5295 50.1054 20.4807C49.9968 20.4318 49.7979 20.3918 49.6637 20.3918C49.5294 20.3918 49.3273 20.4333 49.2147 20.4839C49.102 20.5346 48.9666 20.656 48.9137 20.7535C48.8449 20.8804 48.8243 21.8475 48.8414 24.1392L48.8653 27.3474L49.069 27.5614C49.2312 27.7318 49.3523 27.7754 49.6625 27.7754C49.9356 27.7754 50.1059 27.726 50.232 27.6101C50.3309 27.5191 50.4512 27.3045 50.4995 27.1331C50.5476 26.9616 50.5879 26.4854 50.5889 26.0747C50.5898 25.6641 50.6212 25.2804 50.6587 25.2222C50.7102 25.1419 51.0506 25.1218 52.0649 25.1392L53.4031 25.1621L53.4298 26.1162C53.4453 26.6741 53.4132 27.2598 53.3525 27.5266C53.2953 27.7775 53.1772 28.1372 53.09 28.326C53.0028 28.5147 52.8027 28.8176 52.6453 28.9991C52.488 29.1806 52.1423 29.4339 51.8772 29.562C51.612 29.69 51.2418 29.8323 51.0546 29.8781C50.8673 29.9239 50.2603 29.9604 49.7057 29.9593C49.1511 29.9581 48.5649 29.9304 48.4032 29.8977C48.2414 29.8649 48.0239 29.8034 47.92 29.7609C47.816 29.7183 47.6269 29.637 47.4998 29.5799C47.3727 29.5229 47.0796 29.2895 46.8485 29.0614C46.6175 28.8332 46.3811 28.5439 46.3233 28.4184C46.2656 28.2929 46.1831 28.1063 46.14 28.0036C46.0969 27.9009 46.0345 27.6863 46.0014 27.5266C45.9682 27.3669 45.9258 25.8175 45.9069 24.0836C45.8826 21.8289 45.9009 20.8366 45.9713 20.5992C46.0254 20.4167 46.1501 20.0994 46.2485 19.894C46.3468 19.6887 46.5729 19.3647 46.7511 19.1739C46.9292 18.9832 47.2736 18.7312 47.5163 18.6139C47.759 18.4967 48.1996 18.3485 48.4954 18.2847C48.7913 18.2208 49.3052 18.1648 49.6374 18.1601C49.9696 18.1556 50.4975 18.2105 50.8105 18.2821ZM18.2988 18.4695C18.3823 18.5218 18.3999 19.7012 18.3829 24.0889L18.3613 29.6421L16.9117 29.6648L15.4621 29.6875V25.2056V20.7237H14.6698H13.8774L13.8348 23.5236C13.8114 25.0637 13.7552 26.5849 13.71 26.9043C13.6649 27.2237 13.6029 27.5971 13.5723 27.734C13.5417 27.8709 13.4865 28.0575 13.4496 28.1488C13.4127 28.24 13.2936 28.497 13.1849 28.7198C13.0762 28.9426 12.8539 29.2354 12.6909 29.3706C12.5278 29.5056 12.2433 29.6681 12.0586 29.7316C11.8738 29.7951 11.4129 29.8476 11.0343 29.8483C10.6558 29.8489 10.3226 29.8122 10.2941 29.7665C10.2655 29.7209 10.1593 29.6824 10.058 29.6809C9.95676 29.6795 9.80777 29.6287 9.72685 29.5681C9.60231 29.4748 9.57979 29.3166 9.57979 28.5337V27.6095H10.071C10.4432 27.6095 10.5964 27.5721 10.7037 27.455C10.7816 27.3701 10.8818 27.0808 10.9263 26.8121C10.9709 26.5435 11.0076 24.5858 11.0079 22.4617C11.0083 19.5692 11.0336 18.5749 11.1092 18.5003C11.1844 18.426 12.0965 18.401 14.7016 18.402C16.622 18.4027 18.2408 18.4331 18.2988 18.4695ZM38.4032 21.0889C38.6574 21.1495 39.0051 21.2574 39.176 21.3286C39.3467 21.3998 39.6184 21.5766 39.7796 21.7214C39.9408 21.8662 40.1414 22.121 40.2254 22.2875C40.3618 22.5582 40.3838 22.9332 40.4326 25.8258C40.4627 27.6054 40.5141 29.2014 40.5469 29.3725L40.6065 29.6836H39.3787H38.1511V29.3566C38.1511 29.1768 38.1178 29.0093 38.0771 28.9845C38.0363 28.9596 37.9151 29.0659 37.8078 29.2206C37.7004 29.3753 37.4974 29.5707 37.3566 29.655C37.2159 29.7392 36.9872 29.8416 36.8486 29.8827C36.7099 29.9238 36.3885 29.9555 36.1343 29.9532C35.8801 29.9509 35.5326 29.9228 35.362 29.8907C35.1915 29.8587 34.8944 29.6993 34.7017 29.5365C34.5089 29.3736 34.2752 29.0694 34.1821 28.8605C34.0502 28.5642 34.0125 28.2981 34.0109 27.651C34.0093 26.9843 34.0436 26.7442 34.1857 26.4286C34.2829 26.2127 34.5248 25.8761 34.7232 25.6809C34.9322 25.4751 35.4195 25.1596 35.8822 24.9304C36.3213 24.7129 36.8777 24.4297 37.1188 24.3011C37.3598 24.1724 37.6127 24.0217 37.6806 23.966C37.7486 23.9103 37.8291 23.7529 37.8595 23.6161C37.8899 23.4794 37.8703 23.2616 37.816 23.1321C37.7448 22.9624 37.6398 22.8823 37.4403 22.8453C37.2881 22.8171 37.0679 22.8299 36.9512 22.8737C36.8344 22.9175 36.7117 22.9968 36.6785 23.0498C36.6452 23.1029 36.5943 23.3385 36.5652 23.5735L36.5125 24.0007L35.3027 24.0237L34.093 24.0469L34.1481 23.4611C34.1785 23.1378 34.2859 22.7016 34.3879 22.4874C34.4895 22.2741 34.7078 21.966 34.873 21.8029C35.0383 21.6398 35.3191 21.438 35.4971 21.3547C35.6751 21.2713 35.9952 21.1559 36.2086 21.0982C36.4219 21.0404 36.899 20.9898 37.2687 20.9858C37.6385 20.9818 38.149 21.0281 38.4032 21.0889ZM65.2098 21.0909C65.464 21.1528 65.7476 21.2325 65.8401 21.2679C65.9325 21.3033 66.168 21.4392 66.3633 21.5699C66.5586 21.7005 66.8101 21.9649 66.9222 22.1574C67.0343 22.3499 67.1687 22.7687 67.221 23.0881C67.2762 23.4252 67.3237 24.9307 67.3343 26.6763L67.3527 29.6837H66.2001C65.1468 29.6836 65.0401 29.6698 64.9606 29.5231C64.9128 29.4349 64.8737 29.2855 64.8737 29.1913C64.8737 29.097 64.862 29.0199 64.8477 29.0199C64.8334 29.0199 64.6308 29.2015 64.3975 29.4236C64.1453 29.6635 63.8577 29.8527 63.6882 29.89C63.5314 29.9245 63.1762 29.9539 62.8989 29.9554C62.6216 29.9569 62.2812 29.9243 62.1426 29.8831C62.0039 29.8418 61.7753 29.7392 61.6345 29.655C61.4938 29.5707 61.2858 29.3686 61.1723 29.2056C61.0589 29.0427 60.9194 28.7569 60.8624 28.5706C60.8053 28.3842 60.7586 27.9517 60.7586 27.6095C60.7586 27.2673 60.8066 26.8566 60.8655 26.6969C60.9242 26.5372 61.0361 26.289 61.114 26.1452C61.192 26.0015 61.4062 25.7569 61.59 25.6016C61.7739 25.4463 62.2381 25.1554 62.6217 24.9552C63.0052 24.755 63.5459 24.4775 63.8233 24.3383C64.1006 24.1992 64.3947 24.0128 64.4768 23.924C64.559 23.8352 64.6488 23.6735 64.6765 23.5645C64.7043 23.4554 64.6848 23.2749 64.6333 23.1632C64.5817 23.0517 64.438 22.9222 64.3139 22.8756C64.1897 22.829 63.9839 22.8135 63.8564 22.8411C63.7291 22.8687 63.5754 22.95 63.5152 23.0217C63.4549 23.0934 63.3861 23.343 63.3623 23.5764L63.3191 24.0007L62.1216 24.0236L60.9241 24.0467V23.5921C60.9241 23.3419 60.9667 23.0329 61.0187 22.9053C61.0708 22.7777 61.1923 22.5106 61.2887 22.3118C61.3851 22.113 61.6179 21.8258 61.806 21.6737C61.9941 21.5215 62.2602 21.3507 62.3974 21.2942C62.5345 21.2376 62.7981 21.147 62.9829 21.0928C63.1678 21.0386 63.6405 20.9906 64.0333 20.9863C64.4262 20.982 64.9556 21.0291 65.2098 21.0909ZM80.1186 21.0917C80.3734 21.1571 80.7117 21.2716 80.8705 21.346C81.0293 21.4205 81.3048 21.6375 81.4828 21.8284C81.6607 22.0193 81.8537 22.2782 81.9114 22.4036C81.9692 22.5291 82.0517 22.7157 82.0948 22.8185C82.1378 22.9212 82.1992 23.1358 82.231 23.2955C82.2629 23.4552 82.3065 24.3138 82.3281 25.2036C82.3533 26.2484 82.3319 27.027 82.2675 27.4021C82.2127 27.7215 82.1338 28.0668 82.0922 28.1695C82.0505 28.2721 81.9692 28.4567 81.9114 28.5797C81.8537 28.7026 81.6551 28.9577 81.4702 29.1466C81.2854 29.3356 80.9828 29.5587 80.798 29.6427C80.6131 29.7266 80.3106 29.8281 80.1257 29.8682C79.9408 29.9082 79.5868 29.9627 79.3391 29.9893C79.0913 30.0158 78.6753 29.9913 78.4147 29.9348C78.154 29.8784 77.8463 29.7938 77.7308 29.7468C77.6152 29.6998 77.4261 29.6215 77.3106 29.5729C77.1951 29.5242 76.9301 29.3097 76.7217 29.0961C76.4726 28.8408 76.2751 28.5269 76.1448 28.1794C75.9672 27.7059 75.9425 27.4742 75.9065 25.9503C75.8844 25.0149 75.9036 23.9628 75.9493 23.6125C75.995 23.2621 76.1247 22.7767 76.2377 22.534C76.3506 22.2911 76.5804 21.9572 76.7485 21.792C76.9166 21.6266 77.1924 21.4264 77.3616 21.3472C77.5308 21.268 77.8438 21.1559 78.0571 21.0982C78.2705 21.0404 78.7174 20.9885 79.0502 20.9828C79.383 20.9772 79.8638 21.0261 80.1186 21.0917ZM22.1507 21.4308C22.1801 21.546 22.1896 22.5328 22.1718 23.6239C22.1542 24.715 22.1453 25.6008 22.1521 25.5923C22.1589 25.5838 22.5132 24.6623 22.9393 23.5444C23.3654 22.4265 23.7495 21.4464 23.7928 21.3666C23.8618 21.2391 24.0128 21.2214 25.0346 21.2214C25.9144 21.2214 26.221 21.249 26.2929 21.3346C26.3616 21.4162 26.382 22.5885 26.3663 25.5449L26.3444 29.6421H25.168H23.9915V27.5126C23.9915 26.3414 23.9841 25.3905 23.9751 25.3995C23.966 25.4085 23.5974 26.3622 23.1558 27.5188C22.7142 28.6756 22.3528 29.6358 22.3528 29.6528C22.3528 29.6697 21.7856 29.6836 21.0923 29.6836H19.8318V25.5078C19.8318 23.2111 19.8571 21.3071 19.8879 21.2768C19.9187 21.2463 20.4285 21.2214 21.0208 21.2214H22.0976L22.1507 21.4308ZM33.1752 21.2916C33.2549 21.3416 33.2768 21.5963 33.2592 22.2652L33.2352 23.171L31.8547 23.1939C31.0108 23.2079 30.4309 23.2522 30.3631 23.3078C30.2746 23.3803 30.252 24.0377 30.252 26.5411V29.6836H29.0335H27.815V25.4525V21.2214L30.441 21.2227C31.8854 21.2234 33.1157 21.2545 33.1752 21.2916ZM59.9813 22.2346L60.005 23.2065L59.183 23.2302L58.3611 23.254L58.3391 26.471L58.3171 29.688L57.0786 29.6651L55.8401 29.6421L55.7981 26.4481L55.7561 23.254L54.9788 23.2301L54.2015 23.2063V22.2127V21.2193L57.0796 21.2411L59.9577 21.2629L59.9813 22.2346ZM73.4363 21.4585C73.6394 21.5649 73.8914 21.7324 73.9962 21.8308C74.1009 21.9291 74.2711 22.1589 74.3745 22.3414C74.5288 22.614 74.5619 22.7994 74.5596 23.3785C74.5578 23.8247 74.5094 24.1902 74.4279 24.374C74.3572 24.5337 74.192 24.762 74.0612 24.8814C73.9303 25.0008 73.7521 25.1357 73.6652 25.1811C73.5234 25.2553 73.5468 25.2906 73.8944 25.5267C74.1072 25.6714 74.3791 25.9541 74.4984 26.1551C74.6896 26.4772 74.7156 26.6133 74.717 27.3011C74.7183 27.9255 74.683 28.1565 74.5406 28.4555C74.4428 28.6611 74.2534 28.9396 74.1199 29.0745C73.9863 29.2093 73.7137 29.4023 73.5141 29.5035C73.1624 29.6815 73.0811 29.6866 70.9241 29.6647L68.6972 29.6421L68.6739 25.6184C68.6611 23.4054 68.6721 21.5076 68.6984 21.4009L68.7461 21.2071L70.9065 21.236C72.9789 21.2638 73.082 21.2729 73.4363 21.4585ZM86.1211 21.3304C86.1731 21.3923 86.223 21.8815 86.2364 22.461L86.2601 23.4826L86.4601 23.1194C86.5702 22.9197 86.811 22.4762 86.9953 22.134C87.1796 21.7918 87.3885 21.4464 87.4595 21.3666C87.5723 21.2398 87.7574 21.2214 88.9202 21.2214C90.1084 21.2214 90.2517 21.2364 90.2517 21.3601C90.2517 21.4363 90.2008 21.5577 90.1384 21.6297C90.0762 21.7018 89.5836 22.4036 89.0437 23.1893C88.2482 24.3474 88.0781 24.6459 88.1457 24.7656C88.1915 24.8468 88.4034 25.2866 88.6166 25.7429C88.8298 26.1992 89.1242 26.8327 89.2708 27.1508C89.4174 27.4689 89.7339 28.1409 89.974 28.6441C90.2141 29.1474 90.3813 29.5882 90.3456 29.6237C90.3099 29.6591 89.7205 29.6778 89.0358 29.6652C88.0296 29.6465 87.7787 29.6182 87.7279 29.5177C87.6932 29.4492 87.5891 29.2252 87.4965 29.0199C87.4038 28.8145 87.2715 28.5159 87.2023 28.3562C87.1332 28.1965 86.9761 27.8418 86.8533 27.568C86.7306 27.2943 86.581 26.9662 86.5211 26.839C86.4327 26.6516 86.394 26.6292 86.3172 26.7206C86.2572 26.7919 86.2138 27.3494 86.1992 28.2377L86.1761 29.6421L84.8946 29.665L83.6131 29.6879V25.51C83.6131 23.2121 83.6383 21.3071 83.6691 21.2768C83.6999 21.2463 84.2436 21.2214 84.8773 21.2214C85.7263 21.2214 86.0536 21.2501 86.1211 21.3304ZM71.1099 23.814L71.1342 24.5814L71.4283 24.6017C71.6227 24.6152 71.7894 24.5662 71.9199 24.4573C72.0872 24.3177 72.1173 24.2155 72.1173 23.7884C72.1173 23.3953 72.0831 23.2589 71.9619 23.1681C71.8763 23.1042 71.6443 23.0507 71.4461 23.0493L71.0858 23.0466L71.1099 23.814ZM78.6228 23.2511C78.5071 23.4253 78.4871 23.7573 78.4871 25.494C78.4871 27.2307 78.5071 27.5626 78.6228 27.7369C78.7324 27.9021 78.8283 27.9414 79.1222 27.9414C79.4028 27.9414 79.5158 27.8992 79.6167 27.7569C79.7266 27.6021 79.7476 27.2429 79.7476 25.5141C79.7476 23.7588 79.7276 23.4254 79.6118 23.2511C79.5027 23.0866 79.406 23.0466 79.1173 23.0466C78.8287 23.0466 78.7319 23.0866 78.6228 23.2511ZM24.0335 25.2451C24.0335 25.2679 24.0524 25.2866 24.0755 25.2866C24.0986 25.2866 24.1175 25.2679 24.1175 25.2451C24.1175 25.2223 24.0986 25.2036 24.0755 25.2036C24.0524 25.2036 24.0335 25.2223 24.0335 25.2451ZM37.6469 25.8697C37.5314 25.9577 37.3958 26.0304 37.3458 26.0314C37.2957 26.0324 37.1095 26.1572 36.932 26.3086C36.6367 26.5606 36.6063 26.6264 36.5727 27.0851C36.5514 27.3752 36.5765 27.6611 36.6322 27.7638C36.7091 27.9057 36.8061 27.9414 37.1148 27.9414C37.4016 27.9414 37.5403 27.8969 37.6529 27.7686C37.7363 27.6737 37.8284 27.403 37.8576 27.1672C37.8867 26.9314 37.8985 26.507 37.8838 26.2241L37.857 25.7099L37.6469 25.8697ZM64.1594 25.9951C63.9283 26.1515 63.6541 26.3755 63.5502 26.4929C63.401 26.6611 63.3611 26.807 63.3611 27.1835C63.3611 27.446 63.4097 27.7264 63.4691 27.8067C63.5501 27.916 63.6694 27.946 63.9439 27.9263C64.2271 27.9059 64.3491 27.8488 64.4797 27.6754C64.6163 27.4941 64.6564 27.2826 64.6882 26.5761C64.7099 26.095 64.6944 25.7035 64.6536 25.706C64.6128 25.7084 64.3905 25.8386 64.1594 25.9951ZM71.132 26.3823C71.1061 26.449 71.096 26.8176 71.1095 27.2017L71.1342 27.8999L71.4872 27.9252C71.7128 27.9414 71.9175 27.9006 72.0544 27.8119C72.2473 27.6872 72.2686 27.6203 72.2686 27.1378C72.2686 26.7597 72.2294 26.5634 72.1356 26.4708C72.0624 26.3985 71.8172 26.3219 71.5907 26.3004C71.2805 26.2709 71.1674 26.2912 71.132 26.3823Z" fill="#DDDDDD"/>
</svg>
