<svg width="24" height="24" viewBox="0 0 24 24" fill="none" xmlns="http://www.w3.org/2000/svg">
<path d="M8.48901 17.7273C5.20016 15.5455 3.55573 10.0909 4.10387 8.45455C4.54239 7.14545 6.47916 7.54545 7.39273 7.90909C7.39273 4.09091 9.03715 3 13.4223 3C17.8074 3 20 4.09091 20 9.54545C20 13.9091 18.9037 16.8182 18.3556 17.7273M8.48901 17.7273H18.3556H8.48901ZM8.48901 17.7273V21H18.3556V17.7273H8.48901Z" stroke="currentColor" stroke-width="1.5" stroke-linecap="round" stroke-linejoin="round"/>
<path d="M7.39258 7.90906C7.75801 8.27269 8.81775 8.99997 10.1333 8.99997C11.4489 8.99997 13.9703 8.99997 15.0666 8.99997" stroke="currentColor" stroke-width="1.5" stroke-linecap="round" stroke-linejoin="round"/>
<path d="M7.39258 7.90906C7.39258 11.7273 9.03701 12.2727 10.1333 12.2727" stroke="currentColor" stroke-width="1.5" stroke-linecap="round" stroke-linejoin="round"/>
</svg>
