<svg width="15" height="15" viewBox="0 0 15 15" fill="none" xmlns="http://www.w3.org/2000/svg">
<path fill-rule="evenodd" clip-rule="evenodd" d="M4.07227 13.117C4.45894 13.117 4.82361 13.2637 5.20961 13.419C7.57427 14.5123 10.3709 14.015 12.1929 12.1937C14.5969 9.78833 14.5969 5.87566 12.1929 3.47166C11.0289 2.30766 9.48094 1.66699 7.83294 1.66699C6.18427 1.66699 4.63561 2.30833 3.47227 3.47233C1.64961 5.29366 1.15361 8.09033 2.23694 10.4323C2.39294 10.8183 2.54361 11.1943 2.54361 11.585C2.54361 11.975 2.40961 12.3677 2.29161 12.7143C2.19427 12.9997 2.04694 13.4303 2.14161 13.525C2.23427 13.621 2.66761 13.4697 2.95361 13.3717C3.29694 13.2543 3.68627 13.1197 4.07227 13.117ZM7.81625 14.9963C6.79758 14.9963 5.77225 14.781 4.81292 14.337C4.53025 14.2237 4.26558 14.117 4.07558 14.117C3.85692 14.1183 3.56292 14.2197 3.27892 14.3177C2.69625 14.5177 1.97092 14.767 1.43425 14.2323C0.899584 13.697 1.14625 12.9737 1.34492 12.3917C1.44292 12.105 1.54358 11.809 1.54358 11.585C1.54358 11.401 1.45492 11.1663 1.31892 10.8283C0.0702508 8.13166 0.647584 4.88166 2.76558 2.76499C4.11758 1.41233 5.91692 0.666992 7.83225 0.666992C9.74758 0.666992 11.5476 1.41166 12.8996 2.76433C15.6943 5.55899 15.6943 10.1057 12.8996 12.9003C11.5296 14.271 9.68492 14.9963 7.81625 14.9963Z" fill="currentColor"/>
<path fill-rule="evenodd" clip-rule="evenodd" d="M10.4642 8.77547C10.0962 8.77547 9.79486 8.47747 9.79486 8.10881C9.79486 7.74014 10.0902 7.44214 10.4582 7.44214H10.4642C10.8322 7.44214 11.1309 7.74014 11.1309 8.10881C11.1309 8.47747 10.8322 8.77547 10.4642 8.77547Z" fill="currentColor"/>
<path fill-rule="evenodd" clip-rule="evenodd" d="M7.79165 8.77547C7.42365 8.77547 7.12231 8.47747 7.12231 8.10881C7.12231 7.74014 7.41698 7.44214 7.78565 7.44214H7.79165C8.15965 7.44214 8.45831 7.74014 8.45831 8.10881C8.45831 8.47747 8.15965 8.77547 7.79165 8.77547Z" fill="currentColor"/>
<path fill-rule="evenodd" clip-rule="evenodd" d="M5.11886 8.77547C4.75086 8.77547 4.44952 8.47747 4.44952 8.10881C4.44952 7.74014 4.74486 7.44214 5.11286 7.44214H5.11886C5.48686 7.44214 5.78552 7.74014 5.78552 8.10881C5.78552 8.47747 5.48686 8.77547 5.11886 8.77547Z" fill="currentColor"/>
</svg>
