<svg width="36" height="36" viewBox="0 0 36 36" fill="none" xmlns="http://www.w3.org/2000/svg">
<path d="M23.25 23.25C23.6642 22.8358 23.7062 22.2062 23.3438 21.8438L14.1563 12.6563C13.7938 12.2938 13.1642 12.3358 12.75 12.75C12.3358 13.1642 12.2938 13.7938 12.6563 14.1563L21.8438 23.3437C22.2062 23.7062 22.8358 23.6642 23.25 23.25Z" fill="white"/>
<path d="M12.75 23.25C12.3358 22.8358 12.2938 22.2062 12.6562 21.8438L21.8437 12.6563C22.2062 12.2938 22.8358 12.3358 23.25 12.75C23.6642 13.1642 23.7062 13.7938 23.3437 14.1563L14.1562 23.3437C13.7938 23.7062 13.1642 23.6642 12.75 23.25Z" fill="white"/>
</svg>
