<svg width="20" height="23" viewBox="0 0 20 23" fill="none" xmlns="http://www.w3.org/2000/svg">
<path opacity="0.4" d="M15.628 4.60001H8.00896C5.24532 4.60001 3.63623 6.23761 3.63623 9.04361V18.5472C3.63623 21.3992 5.24532 23 8.00896 23H15.628C18.4362 23 19.9999 21.3992 19.9999 18.5472V9.04361C19.9999 6.23761 18.4362 4.60001 15.628 4.60001Z" fill="#5334EA"/>
<path fill-rule="evenodd" clip-rule="evenodd" d="M8.25429 8.87802V8.88722C7.86247 8.88722 7.5452 9.20922 7.5452 9.60482C7.5452 10.0004 7.86247 10.3224 8.25429 10.3224H10.9716C11.3634 10.3224 11.6816 10.0004 11.6816 9.5947C11.6816 9.20002 11.3634 8.87802 10.9716 8.87802H8.25429ZM15.3816 14.4808H8.25429C7.86247 14.4808 7.5452 14.1588 7.5452 13.7632C7.5452 13.3676 7.86247 13.0447 8.25429 13.0447H15.3816C15.7725 13.0447 16.0907 13.3676 16.0907 13.7632C16.0907 14.1588 15.7725 14.4808 15.3816 14.4808ZM15.3816 18.6852H8.25429C7.98156 18.722 7.71792 18.584 7.57247 18.354C7.42702 18.1148 7.42702 17.8112 7.57247 17.5812C7.71792 17.342 7.98156 17.2132 8.25429 17.2408H15.3816C15.7443 17.2776 16.0179 17.5904 16.0179 17.9676C16.0179 18.3347 15.7443 18.6484 15.3816 18.6852Z" fill="#5334EA"/>
<path opacity="0.4" fill-rule="evenodd" clip-rule="evenodd" d="M4.37273 0H11.9918C14.6131 0 16.15 1.42684 16.3429 3.89893C15.8603 3.7545 15.318 3.68 14.7191 3.68H7.1C4.33636 3.68 2.72727 5.3176 2.72727 8.1236V17.6272C2.72727 17.8169 2.73439 18.0011 2.7485 18.1796C0.989197 17.6503 0 16.1833 0 13.9472V4.4436C0 1.6376 1.60909 0 4.37273 0Z" fill="#5334EA"/>
</svg>
