<svg width="16" height="16" viewBox="0 0 16 16" fill="none" xmlns="http://www.w3.org/2000/svg">
<path fill-rule="evenodd" clip-rule="evenodd" d="M8 16C8.11354 16 8.22653 15.9976 8.33892 15.9929C12.4876 15.82 15.82 12.4876 15.9929 8.33892C15.9976 8.22653 16 8.11354 16 8C16 7.88646 15.9976 7.77347 15.9929 7.66108C15.82 3.51239 12.4876 0.17996 8.33892 0.00705194C8.22653 0.00236773 8.11354 0 8 0C7.88646 0 7.77347 0.00236773 7.66108 0.00705194C3.51239 0.17996 0.17996 3.51239 0.00705194 7.66108C0.00236773 7.77347 0 7.88646 0 8C0 8.11354 0.00236773 8.22653 0.00705194 8.33892C0.17996 12.4876 3.51239 15.82 7.66108 15.9929C7.77347 15.9976 7.88646 16 8 16ZM0 8C7 8 8 7 8 0C8 7 9 8 16 8C9 8 8 9 8 16C8 9 7 8 0 8Z" fill="currentColor"/>
</svg>
