<svg width="16" height="16" viewBox="0 0 16 16" fill="none" xmlns="http://www.w3.org/2000/svg">
<path d="M15.5 8C15.5 3.85742 12.1426 0.5 8 0.5C3.85742 0.5 0.5 3.85742 0.5 8C0.5 12.1426 3.85742 15.5 8 15.5C8.04395 15.5 8.08789 15.5 8.13184 15.4971V9.66113H6.52051V7.7832H8.13184V6.40039C8.13184 4.79785 9.11035 3.9248 10.54 3.9248C11.2256 3.9248 11.8145 3.97461 11.9844 3.99805V5.67383H11C10.2236 5.67383 10.0713 6.04297 10.0713 6.58496V7.78027H11.9316L11.6885 9.6582H10.0713V15.21C13.2061 14.3105 15.5 11.4248 15.5 8Z" fill="currentColor"/>
</svg>
