<svg width="24" height="24" viewBox="0 0 24 24" fill="none" xmlns="http://www.w3.org/2000/svg">
<path d="M12 8L15.804 10.764L12 8ZM12 8L8.196 10.764L12 8ZM12 8V5V8ZM15.804 10.764L14.351 15.236L15.804 10.764ZM15.804 10.764L18.5 9.5L15.804 10.764ZM14.351 15.236H9.65H14.351ZM14.352 15.236L16 17.5L14.352 15.236ZM9.649 15.236L8.196 10.764L9.649 15.236ZM9.649 15.236L8 17.5L9.649 15.236ZM8.196 10.764L5.5 9.5L8.196 10.764ZM5.5 9.5L2.05 13L5.5 9.5ZM5.5 9.5L4.5 5.385L5.5 9.5ZM18.5 9.5L21.95 13L18.5 9.5ZM18.5 9.5L19.5 5.385L18.5 9.5ZM12 5L8.624 2.584L12 5ZM12 5L15.376 2.584L12 5ZM8 17.5L3.338 17L8 17.5ZM8 17.5L10.5 21.888L8 17.5ZM16 17.5L20.662 17L16 17.5ZM16 17.5L13.5 21.888L16 17.5ZM22 12C22 17.523 17.523 22 12 22C6.477 22 2 17.523 2 12C2 6.477 6.477 2 12 2C17.523 2 22 6.477 22 12Z" stroke="currentColor" stroke-width="2" stroke-linecap="round" stroke-linejoin="round"/>
</svg>
