<svg width="30" height="26" viewBox="0 0 30 26" fill="none" xmlns="http://www.w3.org/2000/svg">
<path d="M14.6957 2.51366C15.9688 2.51366 17.0684 1.68821 17.4635 0.47391C16.7098 0.684873 15.7492 0.8122 14.6957 0.8122C13.6423 0.8122 12.6816 0.684873 11.9281 0.47391C12.3229 1.68811 13.4225 2.51366 14.6957 2.51366Z" fill="#DDDDDD"/>
<path d="M29.3547 4.00689C29.2942 3.83436 29.1684 3.69247 29.0045 3.6152L23.401 0.984733C22.209 0.574132 20.9947 0.249799 19.7685 0.0127427C19.7254 0.0041464 19.6824 0 19.64 0C19.3365 0 19.0647 0.213087 18.9971 0.525589C18.5493 2.53005 16.8044 4.03076 14.6956 4.03076C12.5868 4.03076 10.8418 2.53015 10.3942 0.525589C10.3258 0.213087 10.0544 0 9.75111 0C9.70875 0 9.66578 0.0041464 9.62262 0.0127427C8.39655 0.249799 7.18222 0.574132 5.98837 0.984733L0.386821 3.6151C0.221926 3.69237 0.095222 3.83426 0.0376381 4.00679C-0.0219349 4.18135 -0.0111938 4.36976 0.0727454 4.5344L2.50539 9.4163C2.61927 9.64799 2.85089 9.78705 3.09595 9.78705C3.1592 9.78705 3.22335 9.77775 3.2866 9.75843L5.98847 8.94411V25.3246C5.98847 25.6966 6.28693 26 6.65372 26H22.7377C23.1035 26 23.4011 25.6965 23.4011 25.3246V8.94431L26.1048 9.75863C26.1681 9.77795 26.2321 9.78726 26.2953 9.78726C26.5398 9.78726 26.7706 9.6482 26.886 9.4165L29.3196 4.5346C29.4015 4.36986 29.4133 4.18145 29.3547 4.00689Z" fill="#DDDDDD"/>
</svg>
