<svg width="13" height="14" viewBox="0 0 13 14" fill="none" xmlns="http://www.w3.org/2000/svg">
<path d="M5.62264 1.10418C6.00196 0.410636 6.99804 0.410635 7.37736 1.10418L9.01111 4.09138C9.10288 4.25917 9.24083 4.39712 9.40862 4.48889L12.3958 6.12264C13.0894 6.50196 13.0894 7.49804 12.3958 7.87736L9.40862 9.51111C9.24083 9.60288 9.10288 9.74083 9.01111 9.90862L7.37736 12.8958C6.99804 13.5894 6.00196 13.5894 5.62264 12.8958L3.98889 9.90862C3.89712 9.74083 3.75917 9.60288 3.59138 9.51111L0.604181 7.87736C-0.0893639 7.49804 -0.0893647 6.50196 0.60418 6.12264L3.59138 4.48889C3.75917 4.39712 3.89712 4.25917 3.98889 4.09138L5.62264 1.10418Z" fill="currentColor"/>
</svg>
