<svg width="40" height="40" viewBox="0 0 40 40" fill="none" xmlns="http://www.w3.org/2000/svg">
<rect width="40" height="40" rx="20" fill="#EA4335"/>
<path d="M8.78042 19.9324C8.55767 14.0675 13.6949 8.64754 19.5657 8.57722C22.5579 8.32201 25.469 9.48399 27.7335 11.3791C26.8046 12.4005 25.8595 13.41 24.8499 14.3551C22.8564 13.144 20.4562 12.221 18.1264 13.0407C14.3685 14.1107 12.0928 18.5477 13.4834 22.2239C14.6351 26.0634 19.3051 28.1705 22.9651 26.5576C24.8603 25.879 26.1098 24.1304 26.658 22.2515C24.486 22.2082 22.3135 22.2352 20.1415 22.1753C20.1361 20.883 20.1307 19.5956 20.1361 18.3033C23.7583 18.2979 27.3858 18.2871 31.0134 18.3195C31.2361 21.4858 30.769 24.8744 28.7106 27.4157C25.8919 31.0433 20.6844 32.1079 16.4481 30.6848C11.9521 29.2081 8.68257 24.6787 8.78042 19.9324Z" fill="white"/>
</svg>
