<svg width="135" height="40" viewBox="0 0 135 40" fill="none" xmlns="http://www.w3.org/2000/svg">
<path d="M0 5C0 2.23858 2.23858 0 5 0H130C132.761 0 135 2.23858 135 5V35C135 37.7614 132.761 40 130 40H5C2.23857 40 0 37.7614 0 35V5Z" fill="currentColor"/>
<path d="M68.14 21.7499C67.2974 21.7519 66.4744 22.0037 65.7749 22.4734C65.0755 22.9432 64.531 23.6098 64.2104 24.3889C63.8898 25.1681 63.8075 26.0248 63.9738 26.8508C64.1401 27.6768 64.5476 28.4349 65.1448 29.0292C65.742 29.6236 66.502 30.0276 67.3287 30.19C68.1555 30.3524 69.0118 30.2661 69.7895 29.9418C70.5671 29.6175 71.2311 29.07 71.6976 28.3683C72.164 27.6667 72.412 26.8425 72.41 25.9999C72.4181 25.4379 72.3131 24.8799 72.1012 24.3593C71.8892 23.8386 71.5746 23.366 71.1762 22.9694C70.7778 22.5729 70.3037 22.2606 69.7821 22.051C69.2604 21.8415 68.702 21.7391 68.14 21.7499ZM68.14 28.5799C67.6236 28.616 67.1082 28.496 66.6609 28.2353C66.2137 27.9747 65.8552 27.5855 65.632 27.1184C65.4088 26.6512 65.3314 26.1278 65.4097 25.6161C65.4879 25.1043 65.7184 24.628 66.0709 24.249C66.4235 23.8699 66.882 23.6057 67.3867 23.4907C67.8915 23.3757 68.4192 23.4152 68.9012 23.604C69.3832 23.7929 69.7972 24.1223 70.0895 24.5496C70.3818 24.9769 70.5387 25.4822 70.54 25.9999C70.5561 26.3279 70.5063 26.6559 70.3937 26.9643C70.2811 27.2728 70.1078 27.5556 69.8841 27.7961C69.6604 28.0366 69.3909 28.2298 69.0913 28.3644C68.7918 28.499 68.4683 28.5723 68.14 28.5799ZM58.82 21.7499C57.9774 21.7519 57.1544 22.0037 56.4549 22.4734C55.7555 22.9432 55.211 23.6098 54.8904 24.3889C54.5698 25.1681 54.4875 26.0248 54.6538 26.8508C54.8201 27.6768 55.2276 28.4349 55.8248 29.0292C56.422 29.6236 57.182 30.0276 58.0087 30.19C58.8355 30.3524 59.6918 30.2661 60.4694 29.9418C61.2471 29.6175 61.9111 29.07 62.3776 28.3683C62.844 27.6667 63.092 26.8425 63.09 25.9999C63.0981 25.4379 62.9931 24.8799 62.7811 24.3593C62.5692 23.8386 62.2546 23.366 61.8562 22.9694C61.4578 22.5729 60.9837 22.2606 60.4621 22.051C59.9404 21.8415 59.382 21.7391 58.82 21.7499ZM58.82 28.5799C58.3036 28.616 57.7882 28.496 57.3409 28.2353C56.8937 27.9747 56.5352 27.5855 56.312 27.1184C56.0888 26.6512 56.0114 26.1278 56.0897 25.6161C56.1679 25.1043 56.3983 24.628 56.7509 24.249C57.1035 23.8699 57.562 23.6057 58.0667 23.4907C58.5715 23.3757 59.0992 23.4152 59.5812 23.604C60.0632 23.7929 60.4772 24.1223 60.7695 24.5496C61.0618 24.9769 61.2187 25.4822 61.22 25.9999C61.2361 26.3279 61.1864 26.6559 61.0737 26.9643C60.9611 27.2728 60.7878 27.5556 60.5641 27.7961C60.3404 28.0366 60.0709 28.2298 59.7713 28.3644C59.4718 28.499 59.1483 28.5723 58.82 28.5799ZM47.74 23.0599V24.8599H52.06C51.9922 25.7077 51.6398 26.5077 51.06 27.1299C50.6266 27.5714 50.1054 27.9171 49.5301 28.1444C48.9547 28.3718 48.3381 28.4759 47.72 28.4499C46.4469 28.4499 45.226 27.9442 44.3259 27.044C43.4257 26.1439 42.92 24.923 42.92 23.6499C42.92 22.3769 43.4257 21.156 44.3259 20.2558C45.226 19.3556 46.4469 18.8499 47.72 18.8499C48.9404 18.8318 50.1189 19.2952 51 20.1399L52.27 18.8699C51.674 18.2804 50.9663 17.8158 50.1884 17.5033C49.4106 17.1908 48.5782 17.0366 47.74 17.0499C46.851 17.0153 45.9641 17.1605 45.1326 17.4769C44.3011 17.7932 43.5419 18.2742 42.9007 18.8909C42.2595 19.5077 41.7494 20.2475 41.401 21.0661C41.0525 21.8847 40.8729 22.7652 40.8729 23.6549C40.8729 24.5446 41.0525 25.4251 41.401 26.2437C41.7494 27.0623 42.2595 27.8022 42.9007 28.4189C43.5419 29.0357 44.3011 29.5166 45.1326 29.833C45.9641 30.1493 46.851 30.2945 47.74 30.2599C48.5954 30.2941 49.4484 30.1469 50.2429 29.8281C51.0374 29.5092 51.7555 29.0259 52.35 28.4099C53.4001 27.2563 53.9596 25.7391 53.91 24.1799C53.9136 23.8046 53.8834 23.4298 53.82 23.0599H47.74ZM93.05 24.4599C92.7892 23.6927 92.3015 23.0227 91.6515 22.5388C91.0015 22.0548 90.2198 21.7797 89.41 21.7499C88.863 21.7489 88.3216 21.86 87.8192 22.0765C87.3169 22.2929 86.8643 22.6101 86.4894 23.0085C86.1145 23.4068 85.8252 23.8778 85.6396 24.3923C85.4539 24.9068 85.3758 25.454 85.41 25.9999C85.4014 26.9128 85.6884 27.8039 86.2281 28.5402C86.7678 29.2765 87.5312 29.8184 88.4042 30.0851C89.2773 30.3517 90.2132 30.3288 91.0722 30.0196C91.9311 29.7105 92.667 29.1318 93.17 28.3699L91.72 27.3699C91.5038 27.7302 91.1972 28.0277 90.8306 28.2329C90.464 28.4382 90.0501 28.544 89.63 28.5399C89.1965 28.5578 88.7678 28.4442 88.4002 28.214C88.0325 27.9837 87.7431 27.6477 87.57 27.2499L93.26 24.8999L93.05 24.4599ZM87.25 25.8799C87.2297 25.5698 87.2717 25.2588 87.3734 24.9651C87.4752 24.6715 87.6347 24.4012 87.8424 24.1701C88.0502 23.939 88.3022 23.7518 88.5834 23.6195C88.8646 23.4873 89.1695 23.4126 89.48 23.3999C89.8011 23.3794 90.1212 23.4537 90.4004 23.6138C90.6795 23.7738 90.9054 24.0124 91.05 24.2999L87.25 25.8799ZM82.63 29.9999H84.5V17.4999H82.63V29.9999ZM79.57 22.6999H79.5C79.216 22.3909 78.8692 22.1462 78.4829 21.9823C78.0965 21.8185 77.6795 21.7392 77.26 21.7499C76.1672 21.8029 75.1366 22.2743 74.382 23.0665C73.6273 23.8587 73.2063 24.9108 73.2063 26.0049C73.2063 27.099 73.6273 28.1512 74.382 28.9433C75.1366 29.7355 76.1672 30.2069 77.26 30.2599C77.6839 30.2684 78.1046 30.1832 78.4918 30.0103C78.879 29.8375 79.2233 29.5812 79.5 29.2599H79.57V29.8699C79.57 31.4999 78.7 32.3699 77.3 32.3699C76.8323 32.3596 76.3782 32.2106 75.9954 31.9418C75.6126 31.6729 75.3183 31.2964 75.15 30.8599L73.53 31.5299C73.8295 32.2822 74.3502 32.9258 75.0234 33.3758C75.6965 33.8257 76.4904 34.0608 77.3 34.0499C79.49 34.0499 81.3 32.7599 81.3 29.6199V21.9999H79.57V22.6999ZM77.42 28.5799C76.7648 28.5391 76.1498 28.25 75.7003 27.7716C75.2508 27.2932 75.0005 26.6614 75.0005 26.0049C75.0005 25.3485 75.2508 24.7167 75.7003 24.2383C76.1498 23.7598 76.7648 23.4708 77.42 23.4299C77.7402 23.4437 78.0544 23.5218 78.3438 23.6596C78.6333 23.7973 78.8921 23.9918 79.1048 24.2316C79.3175 24.4714 79.4798 24.7515 79.5821 25.0553C79.6843 25.3591 79.7244 25.6803 79.7 25.9999C79.7273 26.3206 79.6892 26.6435 79.5881 26.9491C79.4871 27.2546 79.3251 27.5365 79.1119 27.7777C78.8988 28.0189 78.639 28.2143 78.3482 28.3522C78.0574 28.4901 77.7416 28.5676 77.42 28.5799ZM101.81 17.4999H97.33V29.9999H99.2V25.2599H101.81C102.343 25.2982 102.878 25.2263 103.382 25.0486C103.886 24.871 104.348 24.5915 104.739 24.2274C105.13 23.8634 105.442 23.4227 105.655 22.9328C105.869 22.4428 105.979 21.9142 105.979 21.3799C105.979 20.8456 105.869 20.317 105.655 19.8271C105.442 19.3372 105.13 18.8965 104.739 18.5324C104.348 18.1684 103.886 17.8888 103.382 17.7112C102.878 17.5336 102.343 17.4616 101.81 17.4999ZM101.81 23.4999H99.2V19.2399H101.85C102.418 19.2399 102.962 19.4654 103.363 19.8667C103.765 20.268 103.99 20.8124 103.99 21.3799C103.99 21.9475 103.765 22.4918 103.363 22.8931C102.962 23.2945 102.418 23.5199 101.85 23.5199L101.81 23.4999ZM113.35 21.7099C112.669 21.6679 111.991 21.8265 111.399 22.1659C110.807 22.5054 110.328 23.0109 110.02 23.6199L111.67 24.3099C111.837 24.0093 112.087 23.7634 112.39 23.6019C112.694 23.4405 113.038 23.3703 113.38 23.3999C113.617 23.3722 113.858 23.392 114.088 23.4582C114.317 23.5245 114.531 23.6358 114.718 23.7856C114.904 23.9355 115.058 24.1209 115.172 24.3311C115.286 24.5413 115.356 24.7721 115.38 25.0099V25.1299C114.779 24.8138 114.109 24.6491 113.43 24.6499C111.65 24.6499 109.83 25.6499 109.83 27.4699C109.848 27.8568 109.943 28.2361 110.11 28.5855C110.277 28.9348 110.513 29.247 110.803 29.5035C111.093 29.7601 111.431 29.9557 111.799 30.0787C112.166 30.2018 112.554 30.2498 112.94 30.2199C113.409 30.2459 113.877 30.1466 114.295 29.9322C114.713 29.7178 115.067 29.3961 115.32 28.9999H115.38V29.9999H117.18V25.1899C117.18 22.9999 115.52 21.7299 113.39 21.7299L113.35 21.7099ZM113.12 28.5599C112.51 28.5599 111.66 28.2499 111.66 27.4999C111.66 26.4999 112.72 26.1599 113.66 26.1599C114.254 26.1453 114.841 26.2903 115.36 26.5799C115.297 27.123 115.04 27.6249 114.635 27.9926C114.231 28.3604 113.707 28.569 113.16 28.5799L113.12 28.5599ZM123.74 21.9999L121.6 27.4199H121.54L119.32 21.9999H117.32L120.65 29.5799L118.75 33.7899H120.75L125.82 21.9999H123.74ZM106.94 29.9999H108.8V17.4999H106.94V29.9999Z" fill="white"/>
<path d="M10.25 8.93973V8.93083L10.2494 8.92196C10.2221 8.53952 10.3213 8.16046 10.5289 7.84199L22.65 19.9533V20.0464L10.558 32.1677C10.3335 31.8517 10.2234 31.4664 10.2494 31.0764L10.25 31.0681V31.0597V8.93973Z" fill="white" stroke="#212327" stroke-width="0.5"/>
<path d="M31.8769 18.7773L31.8772 18.7775C32.5315 19.1467 32.8 19.5997 32.8 20.001C32.8 20.4026 32.531 20.8582 31.8763 21.2325C31.8762 21.2325 31.8761 21.2326 31.876 21.2327L27.0507 23.9759L23.15 20.0467V19.9527L27.0372 16.0371L31.8769 18.7773Z" fill="white" stroke="#212327" stroke-width="0.5"/>
<mask id="path-5-inside-1_908_17788" fill="white">
<path d="M27.12 24.23L22.9 20L10.44 32.46C10.7226 32.7115 11.0843 32.8562 11.4624 32.869C11.8404 32.8818 12.2111 32.7619 12.51 32.53L27.12 24.23Z"/>
</mask>
<path d="M27.12 24.23L22.9 20L10.44 32.46C10.7226 32.7115 11.0843 32.8562 11.4624 32.869C11.8404 32.8818 12.2111 32.7619 12.51 32.53L27.12 24.23Z" fill="white"/>
<path d="M22.9 20L23.254 19.6469L22.9004 19.2925L22.5464 19.6464L22.9 20ZM10.44 32.46L10.0864 32.1064L9.71175 32.4811L10.1076 32.8335L10.44 32.46ZM12.51 32.53L12.263 32.0953L12.2319 32.113L12.2036 32.1349L12.51 32.53ZM27.474 23.8769L23.254 19.6469L22.546 20.3531L26.766 24.5831L27.474 23.8769ZM22.5464 19.6464L10.0864 32.1064L10.7936 32.8136L23.2536 20.3536L22.5464 19.6464ZM10.1076 32.8335C10.4774 33.1626 10.9507 33.352 11.4455 33.3687L11.4793 32.3693C11.2179 32.3605 10.9678 32.2604 10.7724 32.0865L10.1076 32.8335ZM11.4455 33.3687C11.9402 33.3855 12.4253 33.2285 12.8165 32.9251L12.2036 32.1349C11.9969 32.2952 11.7406 32.3781 11.4793 32.3693L11.4455 33.3687ZM12.757 32.9647L27.367 24.6647L26.873 23.7953L12.263 32.0953L12.757 32.9647Z" fill="#212327" mask="url(#path-5-inside-1_908_17788)"/>
<path d="M12.3548 7.67599L12.3699 7.68788L12.3865 7.69734L26.7112 15.8352L22.9 19.6464L10.8228 7.56917C11.0186 7.4543 11.2415 7.38956 11.4713 7.3829C11.7911 7.37363 12.104 7.47741 12.3548 7.67599Z" fill="white" stroke="#212327" stroke-width="0.5"/>
<path d="M42.11 14.27H41.38V12.27H42C42.279 11.9672 42.4887 11.6073 42.6148 11.2153C42.7408 10.8234 42.7801 10.4087 42.73 10V7H46.73V12.26H47.4V14.26H46.66V13H42.11V14.27ZM43.5 10C43.5446 10.8033 43.346 11.6014 42.93 12.29H45.93V7.74H43.5V10Z" fill="white" stroke="white" stroke-width="0.2" stroke-miterlimit="10"/>
<path d="M53.41 12.22C53.1211 12.509 52.7782 12.7383 52.4007 12.8948C52.0232 13.0512 51.6186 13.1318 51.21 13.1318C50.8013 13.1318 50.3967 13.0512 50.0192 12.8948C49.6418 12.7383 49.2988 12.509 49.01 12.22C48.7229 11.9271 48.4972 11.5799 48.3461 11.1987C48.1949 10.8175 48.1215 10.4099 48.13 9.99996C48.1202 9.59067 48.1921 9.18354 48.3414 8.80236C48.4908 8.42118 48.7147 8.0736 49 7.77996C49.2888 7.4909 49.6318 7.26159 50.0092 7.10514C50.3867 6.94869 50.7913 6.86816 51.2 6.86816C51.6086 6.86816 52.0132 6.94869 52.3907 7.10514C52.7682 7.26159 53.1112 7.4909 53.4 7.77996C53.6907 8.07113 53.9201 8.41759 54.0746 8.79888C54.2292 9.18017 54.3058 9.58857 54.3 9.99996C54.3118 10.4113 54.2389 10.8206 54.0858 11.2025C53.9327 11.5844 53.7026 11.9307 53.41 12.22ZM49.58 11.72C49.7907 11.9388 50.0441 12.1121 50.3244 12.229C50.6048 12.346 50.9062 12.4042 51.21 12.4C51.514 12.406 51.8159 12.3486 52.0966 12.2316C52.3772 12.1145 52.6304 11.9403 52.84 11.72C53.0634 11.4944 53.2382 11.2253 53.3534 10.9295C53.4686 10.6336 53.5219 10.3172 53.51 9.99996C53.5219 9.68268 53.4686 9.36631 53.3534 9.07046C53.2382 8.7746 53.0634 8.50555 52.84 8.27996C52.6304 8.05967 52.3772 7.88543 52.0966 7.76836C51.8159 7.65128 51.514 7.59393 51.21 7.59996C50.9062 7.59575 50.6048 7.65392 50.3244 7.77089C50.0441 7.88785 49.7907 8.06112 49.58 8.27996C49.3598 8.50742 49.1878 8.77702 49.0744 9.07259C48.961 9.36816 48.9085 9.68359 48.92 9.99996C48.9085 10.3163 48.961 10.6318 49.0744 10.9273C49.1878 11.2229 49.3598 11.4925 49.58 11.72Z" fill="white" stroke="white" stroke-width="0.2" stroke-miterlimit="10"/>
<path d="M58.18 13.1298C57.7754 13.1361 57.3737 13.0605 56.999 12.9076C56.6244 12.7546 56.2846 12.5275 56 12.2398C55.703 11.9491 55.4697 11.5999 55.3147 11.2143C55.1598 10.8287 55.0867 10.4151 55.1 9.99975C55.0905 9.58696 55.1646 9.1765 55.3179 8.7931C55.4712 8.40971 55.7005 8.0613 55.992 7.76887C56.2835 7.47643 56.6311 7.24601 57.014 7.09149C57.397 6.93697 57.8072 6.86155 58.22 6.86975C58.6386 6.85791 59.0544 6.94184 59.4357 7.11514C59.817 7.28845 60.1536 7.54655 60.42 7.86975L59.89 8.38975C59.6935 8.13717 59.4393 7.93541 59.1487 7.80143C58.8581 7.66744 58.5396 7.60514 58.22 7.61975C57.9122 7.6119 57.606 7.66731 57.3205 7.78256C57.035 7.8978 56.7761 8.07043 56.56 8.28975C56.3301 8.5104 56.1484 8.77622 56.0262 9.0705C55.904 9.36479 55.844 9.68117 55.85 9.99975C55.836 10.3188 55.8884 10.6372 56.0037 10.935C56.119 11.2327 56.2948 11.5034 56.52 11.7298C56.7361 11.9491 56.995 12.1217 57.2805 12.2369C57.566 12.3522 57.8722 12.4076 58.18 12.3998C58.5288 12.3982 58.8729 12.3194 59.1876 12.169C59.5023 12.0186 59.7798 11.8003 60 11.5298L60.54 12.0598C60.2661 12.388 59.9251 12.654 59.54 12.8398C59.1146 13.0385 58.6495 13.1377 58.18 13.1298Z" fill="white" stroke="white" stroke-width="0.2" stroke-miterlimit="10"/>
<path d="M63.68 13H62.91V7.74H61.23V7H65.35V7.74H63.68V13Z" fill="white" stroke="white" stroke-width="0.2" stroke-miterlimit="10"/>
<path d="M70.65 7L68.38 12.06C68.3249 12.2629 68.2264 12.4514 68.0913 12.6124C67.9562 12.7734 67.7876 12.9031 67.5974 12.9925C67.4071 13.0819 67.1997 13.1289 66.9895 13.1302C66.7793 13.1315 66.5713 13.0871 66.38 13L66.58 12.29C66.7024 12.3588 66.8397 12.3965 66.98 12.4C67.128 12.4074 67.2746 12.369 67.4 12.29C67.5215 12.1889 67.6145 12.058 67.67 11.91L67.89 11.43L65.87 7H66.78L68.26 10.44L69.74 7H70.65Z" fill="white" stroke="white" stroke-width="0.2" stroke-miterlimit="10"/>
<path d="M71.52 13V7H75.86V13H75.09V7.74H72.29V13H71.52Z" fill="white" stroke="white" stroke-width="0.2" stroke-miterlimit="10"/>
<path d="M77.23 13V7H78V9.57H81V7H81.78V13H81V10.29H78V13H77.23Z" fill="white" stroke="white" stroke-width="0.2" stroke-miterlimit="10"/>
<path d="M88.06 12.2201C87.7712 12.5091 87.4282 12.7384 87.0507 12.8949C86.6732 13.0514 86.2686 13.1319 85.86 13.1319C85.4514 13.1319 85.0467 13.0514 84.6692 12.8949C84.2918 12.7384 83.9488 12.5091 83.66 12.2201C83.3673 11.9309 83.1373 11.5845 82.9842 11.2026C82.8311 10.8207 82.7582 10.4114 82.77 10.0001C82.7582 9.58879 82.8311 9.17947 82.9842 8.79755C83.1373 8.41564 83.3673 8.06931 83.66 7.78008C83.948 7.49133 84.2901 7.26223 84.6667 7.10592C85.0434 6.9496 85.4472 6.86914 85.855 6.86914C86.2628 6.86914 86.6666 6.9496 87.0432 7.10592C87.4199 7.26223 87.762 7.49133 88.05 7.78008C88.3426 8.06931 88.5727 8.41564 88.7258 8.79755C88.8789 9.17947 88.9518 9.58879 88.94 10.0001C88.9531 10.4107 88.8818 10.8195 88.7304 11.2014C88.579 11.5833 88.3508 11.93 88.06 12.2201ZM84.23 11.7201C84.4396 11.9404 84.6928 12.1146 84.9734 12.2317C85.254 12.3488 85.556 12.4061 85.86 12.4001C86.1637 12.4043 86.4651 12.3461 86.7455 12.2292C87.0259 12.1122 87.2793 11.9389 87.49 11.7201C87.7102 11.4926 87.8821 11.223 87.9956 10.9275C88.109 10.6319 88.1615 10.3165 88.15 10.0001C88.1615 9.68371 88.109 9.36828 87.9956 9.07271C87.8821 8.77714 87.7102 8.50754 87.49 8.28008C87.2793 8.06124 87.0259 7.88798 86.7455 7.77101C86.4651 7.65404 86.1637 7.59587 85.86 7.60008C85.556 7.59406 85.254 7.65141 84.9734 7.76848C84.6928 7.88556 84.4396 8.05979 84.23 8.28008C84.0066 8.50567 83.8318 8.77472 83.7166 9.07058C83.6013 9.36644 83.548 9.6828 83.56 10.0001C83.548 10.3174 83.6013 10.6337 83.7166 10.9296C83.8318 11.2254 84.0066 11.4945 84.23 11.7201Z" fill="white" stroke="white" stroke-width="0.2" stroke-miterlimit="10"/>
<path d="M92.09 13.0001V7.00009H94.26C94.7099 6.99558 95.1451 7.15968 95.48 7.46009C95.6466 7.60554 95.7794 7.78559 95.8692 7.98767C95.959 8.18974 96.0037 8.40898 96 8.63009C96.0024 8.89947 95.9259 9.16366 95.78 9.39009C95.6324 9.6048 95.4282 9.77441 95.19 9.88009C95.4773 9.9762 95.7284 10.1576 95.91 10.4001C96.1008 10.642 96.2032 10.942 96.2 11.2501C96.2051 11.4806 96.1594 11.7094 96.066 11.9203C95.9727 12.1312 95.8341 12.3189 95.66 12.4701C95.3129 12.7931 94.854 12.9687 94.38 12.9601L92.09 13.0001ZM92.86 9.57009H94.26C94.391 9.57767 94.522 9.55552 94.6432 9.5053C94.7644 9.45508 94.8727 9.37809 94.96 9.28009C95.1296 9.11392 95.2266 8.88748 95.23 8.65009C95.2395 8.41196 95.1571 8.17928 95 8.00009C94.9159 7.90683 94.8122 7.83336 94.6964 7.78494C94.5806 7.73653 94.4554 7.71438 94.33 7.72009H92.86V9.57009ZM92.86 12.2601H94.41C94.547 12.2654 94.6835 12.2404 94.8097 12.1868C94.9359 12.1332 95.0487 12.0524 95.14 11.9501C95.3127 11.7657 95.4091 11.5227 95.41 11.2701C95.4039 11.0196 95.304 10.7805 95.13 10.6001C95.0336 10.4989 94.917 10.419 94.7879 10.3656C94.6587 10.3122 94.5197 10.2865 94.38 10.2901H92.86V12.2601Z" fill="white" stroke="white" stroke-width="0.2" stroke-miterlimit="10"/>
</svg>
