<svg width="30" height="30" viewBox="0 0 30 30" fill="none" xmlns="http://www.w3.org/2000/svg">
<path d="M7 11C7 10.4477 7.44772 10 8 10H22C22.5523 10 23 10.4477 23 11C23 11.5523 22.5523 12 22 12H8C7.44772 12 7 11.5523 7 11Z" fill="white"/>
<path d="M7 19C7 18.4477 7.44772 18 8 18H18C18.5523 18 19 18.4477 19 19C19 19.5523 18.5523 20 18 20H8C7.44772 20 7 19.5523 7 19Z" fill="white"/>
<path d="M7 15C7 14.4477 7.44772 14 8 14H22C22.5523 14 23 14.4477 23 15C23 15.5523 22.5523 16 22 16H8C7.44772 16 7 15.5523 7 15Z" fill="white"/>
</svg>
