<svg width="14" height="13" viewBox="0 0 14 13" fill="none" xmlns="http://www.w3.org/2000/svg">
<path fill-rule="evenodd" clip-rule="evenodd" d="M1.54917 6.08206C2.48384 8.99006 6.17651 11.3414 7.15784 11.9234C8.14251 11.3354 11.8618 8.95806 12.7665 6.08473C13.3605 4.22739 12.8092 1.87473 10.6185 1.16873C9.55717 0.828061 8.31917 1.03539 7.46451 1.69673C7.28584 1.83406 7.03784 1.83673 6.85784 1.70073C5.95251 1.02006 4.76984 0.820727 3.69184 1.16873C1.5045 1.87406 0.955171 4.22673 1.54917 6.08206ZM7.15849 13.0007C7.07583 13.0007 6.99383 12.9807 6.91916 12.9401C6.71049 12.8261 1.79516 10.1167 0.597162 6.38741C0.596495 6.38741 0.596495 6.38674 0.596495 6.38674C-0.155505 4.03875 0.681829 1.08808 3.38516 0.216745C4.6545 -0.193921 6.03783 -0.0132546 7.1565 0.692745C8.2405 0.00741204 9.68049 -0.181921 10.9245 0.216745C13.6305 1.08941 14.4705 4.03941 13.7192 6.38674C12.5598 10.0734 7.60849 12.8234 7.39849 12.9387C7.32383 12.9801 7.24116 13.0007 7.15849 13.0007Z" fill="currentColor"/>
<path fill-rule="evenodd" clip-rule="evenodd" d="M11.1025 5.08335C10.8445 5.08335 10.6258 4.88535 10.6045 4.62401C10.5605 4.07601 10.1938 3.61335 9.67181 3.44468C9.40848 3.35935 9.26448 3.07735 9.34915 2.81535C9.43515 2.55268 9.71448 2.41001 9.97848 2.49268C10.8871 2.78668 11.5238 3.59135 11.6018 4.54268C11.6238 4.81801 11.4191 5.05935 11.1438 5.08135C11.1298 5.08268 11.1165 5.08335 11.1025 5.08335Z" fill="currentColor"/>
</svg>
