<svg width="24" height="24" viewBox="0 0 24 24" fill="none" xmlns="http://www.w3.org/2000/svg">
<path fill-rule="evenodd" clip-rule="evenodd" d="M4.99018 2.46847C5.02611 2.43898 5.22222 2.32159 5.42593 2.20772C5.62963 2.09367 5.87963 2.00206 5.98148 2.0041C6.08333 2.00614 7.45833 4.67197 9.03704 7.92846C10.6157 11.185 11.9491 13.8489 12 13.8487C12.0509 13.8484 13.3813 11.2007 14.9563 7.965C16.5311 4.72946 17.8411 2.04991 17.8669 2.01059C17.8928 1.97146 18.1667 2.04416 18.4756 2.1723C18.7844 2.30026 19.037 2.449 19.037 2.50259C19.037 2.556 17.6126 5.49518 15.8717 9.03392L12.7063 15.4679L13.3685 16.7846L14.0306 18.1013L17.6617 18.1586C21.2219 18.215 21.2996 18.2246 21.6463 18.6539C21.8946 18.9612 22 19.3837 22 20.0706C22 20.7575 21.8944 21.1801 21.6465 21.4872C21.3067 21.908 21.1809 21.9273 18.43 21.984C16.1944 22.0302 15.4209 21.982 14.8994 21.7637C14.3113 21.5176 14.1043 21.2281 13.1657 19.3403C12.5796 18.161 12.055 17.1961 12 17.1961C11.945 17.1961 11.4204 18.161 10.8343 19.3403C9.89574 21.2281 9.68871 21.5176 9.10056 21.7637C8.57908 21.982 7.80556 22.0302 5.57 21.984C2.81908 21.9273 2.69333 21.908 2.35352 21.4872C2.10555 21.1801 2 20.7575 2 20.0706C2 19.3837 2.10537 18.9612 2.3537 18.6539C2.70037 18.2246 2.77815 18.215 6.33833 18.1586L9.96944 18.1013L10.6315 16.7846L11.2937 15.4679L8.10926 8.99498C6.35778 5.43491 4.95407 2.49795 4.99018 2.46847ZM9.22222 19.4281C9.22222 19.6135 9.12648 19.8135 9.00925 20.0364C8.89222 20.2592 8.70463 20.5028 8.59259 20.5778C8.48055 20.6527 7.24315 20.7152 5.84259 20.7169C5.84259 20.7169 3.66667 20.7262 3.48148 20.7262C3.2963 20.7262 3.2963 20.0772 3.2963 20.0772C3.2963 20.0772 3.2963 19.4281 3.48148 19.4281C3.66667 19.4281 6.25926 19.4215 6.25926 19.4215C7.88889 19.4215 9.12963 19.4281 9.22222 19.4281ZM20.4259 20.7169C20.7037 20.7141 20.7037 20.0706 20.7037 20.0706C20.7037 20.0706 20.7037 19.4215 20.4259 19.4215C20.1481 19.4215 17.7407 19.4215 17.7407 19.4215C16.1111 19.4215 14.8704 19.4215 14.7778 19.4281C14.7778 19.4858 14.8735 19.8135 14.9907 20.0364C15.1078 20.2592 15.2954 20.5028 15.4074 20.5778C15.5194 20.6527 16.757 20.7152 18.1574 20.7169C18.1574 20.7169 20.1481 20.7196 20.4259 20.7169Z" fill="currentColor"/>
</svg>
