<svg width="16" height="16" viewBox="0 0 16 16" fill="none" xmlns="http://www.w3.org/2000/svg">
<path fill-rule="evenodd" clip-rule="evenodd" d="M4.63937 0.5H11.3605C13.6431 0.5 15.5001 2.35701 15.5 4.63946V11.3605C15.5 13.643 13.6431 15.5 11.3605 15.5H4.63937C2.35692 15.5 0.5 13.6431 0.5 11.3605V4.63946C0.5 2.35701 2.35692 0.5 4.63937 0.5ZM11.3378 3.29226C11.5189 3.11037 11.7708 3.00656 12.0272 3.00656C12.2845 3.00656 12.5365 3.11037 12.7175 3.29226C12.8994 3.47326 13.0032 3.72524 13.0032 3.98254C13.0032 4.23895 12.8994 4.49093 12.7175 4.67282C12.5356 4.85382 12.2845 4.95851 12.0272 4.95851C11.7708 4.95851 11.5188 4.85382 11.3378 4.67282C11.1559 4.49093 11.0512 4.23904 11.0512 3.98254C11.0512 3.72524 11.1559 3.47326 11.3378 3.29226ZM4.13488 8.00018C4.13488 5.86892 5.86874 4.13506 8 4.13506C10.1313 4.13506 11.8651 5.86892 11.8651 8.00018C11.8651 10.1313 10.1313 11.8651 8 11.8651C5.86874 11.8651 4.13488 10.1313 4.13488 8.00018Z" fill="currentColor"/>
<path d="M8 10.5342C6.60267 10.5342 5.46575 9.39742 5.46575 8.00009C5.46575 6.60267 6.60258 5.46584 8 5.46584C9.39742 5.46584 10.5342 6.60267 10.5342 8.00009C10.5342 9.39742 9.39733 10.5342 8 10.5342Z" fill="currentColor"/>
</svg>
