<svg width="12" height="16" viewBox="0 0 12 16" fill="none" xmlns="http://www.w3.org/2000/svg">
<path d="M11.7704 7.45129L8.81366 4.52535C8.74085 4.4533 8.65442 4.39615 8.5593 4.35716C8.46418 4.31817 8.36222 4.2981 8.25926 4.2981C8.1563 4.2981 8.05434 4.31817 7.95922 4.35716C7.8641 4.39615 7.77767 4.4533 7.70486 4.52535C7.55783 4.67086 7.47523 4.8682 7.47523 5.07397C7.47523 5.27974 7.55783 5.47708 7.70486 5.62259L9.3232 7.22406L3.92028 7.22406C3.71234 7.22406 3.51293 7.3058 3.36589 7.45131C3.21886 7.59681 3.13626 7.79415 3.13626 7.99992C3.13626 8.20569 3.21886 8.40304 3.36589 8.54854C3.51293 8.69404 3.71234 8.77579 3.92028 8.77579H9.3232L7.70486 10.3773C7.55783 10.5228 7.47523 10.7201 7.47524 10.9259C7.47524 11.1317 7.55784 11.329 7.70488 11.4745C7.85191 11.62 8.05134 11.7018 8.25927 11.7017C8.46721 11.7017 8.66663 11.62 8.81366 11.4745L11.7704 8.54852C11.9174 8.40302 12 8.20568 12 7.99991C12 7.79414 11.9174 7.59679 11.7704 7.45129Z" fill="currentColor"/>
<path d="M9.14685 12.3966C8.93892 12.3966 8.7395 12.4783 8.59247 12.6238C8.44544 12.7693 8.36284 12.9666 8.36284 13.1724V13.9483H1.56803V2.05172H8.36284V2.82759C8.36284 3.03336 8.44544 3.2307 8.59247 3.3762C8.7395 3.52171 8.93892 3.60345 9.14685 3.60345C9.35479 3.60345 9.5542 3.52171 9.70123 3.3762C9.84827 3.2307 9.93087 3.03336 9.93087 2.82759V1.7931C9.93087 1.62329 9.89707 1.45514 9.8314 1.29825C9.76573 1.14137 9.66948 0.998817 9.54815 0.878741C9.42681 0.758665 9.28276 0.663416 9.12422 0.598432C8.96569 0.533447 8.79577 0.5 8.62417 0.5H1.30669C0.960137 0.5 0.627774 0.636237 0.382722 0.878741C0.137669 1.12125 0 1.45015 0 1.7931V14.2069C0 14.5498 0.137669 14.8788 0.382722 15.1213C0.627774 15.3638 0.960137 15.5 1.30669 15.5H8.62417C8.79577 15.5 8.96569 15.4666 9.12422 15.4016C9.28276 15.3366 9.42681 15.2413 9.54815 15.1213C9.66948 15.0012 9.76573 14.8586 9.8314 14.7017C9.89707 14.5449 9.93087 14.3767 9.93087 14.2069V13.1724C9.93087 12.9666 9.84827 12.7693 9.70123 12.6238C9.5542 12.4783 9.35479 12.3966 9.14685 12.3966Z" fill="currentColor"/>
</svg>
