<svg width="75" height="36" viewBox="0 0 75 36" fill="none" xmlns="http://www.w3.org/2000/svg">
<path fill-rule="evenodd" clip-rule="evenodd" d="M0 17.1265V5.27538H14.8212V17.1265H9.34254V9.0025H5.47865V17.1265H0Z" fill="currentColor"/>
<path fill-rule="evenodd" clip-rule="evenodd" d="M16.9549 17.1264C16.753 17.1264 16.58 17.1264 16.407 17.1264C16.2052 17.1264 16.0322 17.1264 15.888 17.1264V13.9235H16.234C16.4359 13.9235 16.6089 13.8943 16.7819 13.807C16.9549 13.7196 17.1279 13.6032 17.3009 13.3702C17.4739 13.1664 17.6181 12.8461 17.7334 12.4675C17.8776 12.0599 17.9929 11.5649 18.0795 10.9243C18.166 10.2837 18.2525 9.49749 18.3101 8.59483C18.3678 7.66305 18.3966 6.58568 18.3966 5.30448H28.287V17.1264H23.933V8.82778H22.4335C22.4335 10.371 22.3182 11.6814 22.0587 12.7296C21.7992 13.7779 21.4531 14.6514 21.0206 15.292C20.5881 15.9326 20.0691 16.4276 19.4924 16.6897C18.8868 16.9809 18.2813 17.1264 17.5893 17.1264C17.3586 17.1264 17.1567 17.1264 16.9549 17.1264Z" fill="currentColor"/>
<path fill-rule="evenodd" clip-rule="evenodd" d="M48.2987 17.1265V13.7196H52.6528V17.1265H48.2987ZM40.9169 17.1265V5.27538H45.271V11.0408L47.9527 5.27538H52.6528V12.8752H48.2987V11.3611L45.617 17.1265H40.9169Z" fill="currentColor"/>
<path fill-rule="evenodd" clip-rule="evenodd" d="M45.4151 3.67388C45.0114 3.49917 44.6365 3.29534 44.3482 2.97504C44.0598 2.68386 43.8291 2.33444 43.6561 1.89767C43.4831 1.49002 43.4254 1.02413 43.4254 0.5H45.9341C45.9341 0.762063 46.0206 0.96589 46.1648 1.11148C46.3089 1.25707 46.5108 1.34443 46.7703 1.34443C47.0298 1.34443 47.2317 1.25707 47.3758 1.11148C47.52 0.96589 47.6065 0.762063 47.6065 0.5H50.1152C50.1152 0.995009 50.0286 1.4609 49.8845 1.89767C49.7115 2.30533 49.5096 2.68386 49.1924 2.97504C48.9041 3.26622 48.5581 3.49917 48.1255 3.67388C47.7218 3.84859 47.2605 3.90682 46.7415 3.90682C46.2801 3.90682 45.8476 3.81947 45.4151 3.67388Z" fill="currentColor"/>
<path fill-rule="evenodd" clip-rule="evenodd" d="M0.0287721 30.7246V18.8735H5.68043L7.41053 25.3086L9.16946 18.8735H14.8211V30.7246H10.8419V24.1148L9.02529 30.7246H5.82461L3.97917 24.1148V30.7246H0.0287721Z" fill="currentColor"/>
<path fill-rule="evenodd" clip-rule="evenodd" d="M40.9169 30.7246V18.8735H45.2998V23.6198L47.2894 18.8735H52.3356L49.1349 24.8136L52.6528 30.7246H47.6355L45.2998 25.9784V30.7246H40.9169Z" fill="currentColor"/>
<path fill-rule="evenodd" clip-rule="evenodd" d="M53.7485 30.7246V18.8735H62.8892V22.2512H58.1026V23.0957H62.8892V26.5025H58.1026V27.3469H62.8892V30.7246H53.7485Z" fill="currentColor"/>
<path fill-rule="evenodd" clip-rule="evenodd" d="M30.0459 17.1265V5.27538H39.1866V8.65308H34.4V9.49751H39.1866V12.8752H34.4V13.7488H39.1866V17.1265H30.0459Z" fill="currentColor"/>
<path fill-rule="evenodd" clip-rule="evenodd" d="M16.5514 30.7246V18.8735H25.7209V22.2512H20.9055V23.1248H25.7209V26.5025H20.9055V27.3469H25.7209V30.7246H16.5514Z" fill="currentColor"/>
<path fill-rule="evenodd" clip-rule="evenodd" d="M70.3861 23.5324C70.588 23.3577 70.6745 23.1539 70.6745 22.8918C70.6745 22.6589 70.588 22.426 70.3861 22.2512C70.1843 22.0765 69.9536 21.9892 69.6653 21.9892H69.0021V23.7654H69.6653C69.9536 23.7945 70.1843 23.7072 70.3861 23.5324ZM64.6191 30.7246V18.8735H69.6364C70.5591 18.8735 71.3377 18.9609 72.0297 19.1647C72.6929 19.3685 73.2696 19.6306 73.7022 19.98C74.1347 20.3294 74.4807 20.7662 74.6825 21.2612C74.8844 21.7562 74.9997 22.3095 74.9997 22.921C74.9997 23.5324 74.8844 24.0566 74.6825 24.5807C74.4807 25.0757 74.1924 25.5125 73.7887 25.8619C73.4138 26.2113 72.9236 26.5025 72.3757 26.6772C71.8279 26.881 71.1935 26.9684 70.4726 26.9684H69.4923C69.3192 26.9684 69.1462 26.9393 69.0021 26.881V30.6664H64.6191V30.7246Z" fill="currentColor"/>
<path fill-rule="evenodd" clip-rule="evenodd" d="M31.8048 18.8735V22.2804H27.4507V18.8735H31.8048ZM39.1866 18.8735V30.7246H34.8325V24.9592L32.1508 30.7246H27.4507V23.1248H31.8048V24.6389L34.4865 18.8735H39.1866Z" fill="currentColor"/>
<path fill-rule="evenodd" clip-rule="evenodd" d="M34.6885 32.3261C35.0922 32.5008 35.467 32.7047 35.7554 33.025C36.0437 33.3161 36.2744 33.6656 36.4474 34.1023C36.6204 34.51 36.6781 34.9759 36.6781 35.5H34.1694C34.1694 35.2379 34.0829 35.0341 33.9388 34.8885C33.7946 34.7429 33.5927 34.6556 33.3332 34.6556C33.0737 34.6556 32.8719 34.7429 32.7277 34.8885C32.5835 35.0341 32.497 35.2379 32.497 35.5H29.9884C29.9884 35.005 30.0749 34.5391 30.2191 34.1023C30.3921 33.6947 30.5939 33.3161 30.9111 33.025C31.1994 32.7338 31.5455 32.5008 31.978 32.3261C32.3817 32.1514 32.843 32.0932 33.3621 32.0932C33.8234 32.0932 34.2848 32.1805 34.6885 32.3261Z" fill="currentColor"/>
<path d="M74.9999 7.66305H54.4694V17.1264H74.9999V7.66305Z" fill="currentColor"/>
<path d="M55.6805 5.27538H55.3056V7.02247H55.6805V5.27538Z" fill="currentColor"/>
<path d="M58.2177 5.27538H57.8429V7.02247H58.2177V5.27538Z" fill="currentColor"/>
<path d="M57.3814 5.27538H57.0066V7.02247H57.3814V5.27538Z" fill="currentColor"/>
<path d="M71.6548 5.27538H71.28V7.02247H71.6548V5.27538Z" fill="currentColor"/>
<path d="M72.4911 5.27538H72.1162V7.02247H72.4911V5.27538Z" fill="currentColor"/>
<path d="M73.3274 5.27538H72.9525V7.02247H73.3274V5.27538Z" fill="currentColor"/>
<path d="M56.5164 5.27538H56.1416V7.02247H56.5164V5.27538Z" fill="currentColor"/>
<path d="M59.054 5.27538H58.6792V7.02247H59.054V5.27538Z" fill="currentColor"/>
<path d="M59.8904 5.27538H59.5155V7.02247H59.8904V5.27538Z" fill="currentColor"/>
<path d="M60.7266 5.27538H60.3518V7.02247H60.7266V5.27538Z" fill="currentColor"/>
<path d="M63.2352 5.27538H62.8603V7.02247H63.2352V5.27538Z" fill="currentColor"/>
<path d="M62.3989 5.27538H62.024V7.02247H62.3989V5.27538Z" fill="currentColor"/>
<path d="M61.5626 5.27538H61.1877V7.02247H61.5626V5.27538Z" fill="currentColor"/>
<path d="M64.1002 5.27538H63.7253V7.02247H64.1002V5.27538Z" fill="currentColor"/>
<path d="M64.9365 5.27538H64.5617V7.02247H64.9365V5.27538Z" fill="currentColor"/>
<path d="M65.7728 5.27538H65.3979V7.02247H65.7728V5.27538Z" fill="currentColor"/>
<path d="M68.2813 5.27538H67.9064V7.02247H68.2813V5.27538Z" fill="currentColor"/>
<path d="M67.445 5.27538H67.0701V7.02247H67.445V5.27538Z" fill="currentColor"/>
<path d="M66.6087 5.27538H66.2338V7.02247H66.6087V5.27538Z" fill="currentColor"/>
<path d="M70.8189 5.27538H70.4441V7.02247H70.8189V5.27538Z" fill="currentColor"/>
<path d="M69.9539 5.27538H69.579V7.02247H69.9539V5.27538Z" fill="currentColor"/>
<path d="M69.1176 5.27538H68.7427V7.02247H69.1176V5.27538Z" fill="currentColor"/>
<path d="M74.1637 5.27538H73.7888V7.02247H74.1637V5.27538Z" fill="currentColor"/>
<path d="M75 5.27538H74.6251V7.02247H75V5.27538Z" fill="currentColor"/>
<path d="M54.8442 5.27538H54.4694V7.02247H54.8442V5.27538Z" fill="currentColor"/>
</svg>
