<svg width="24" height="24" viewBox="0 0 24 24" fill="none" xmlns="http://www.w3.org/2000/svg">
<path d="M17.65 6.35003C16.9099 5.60487 16.0296 5.01359 15.0599 4.61026C14.0902 4.20693 13.0502 3.99953 12 4.00003C9.87825 4.00003 7.84342 4.84288 6.34313 6.34317C4.84284 7.84346 3.99998 9.8783 3.99998 12C3.99998 14.1218 4.84284 16.1566 6.34313 17.6569C7.84342 19.1572 9.87825 20 12 20C15.73 20 18.84 17.45 19.73 14H17.65C17.238 15.1695 16.4733 16.1824 15.4613 16.8989C14.4493 17.6153 13.2399 18.0001 12 18C10.4087 18 8.88256 17.3679 7.75734 16.2427C6.63213 15.1174 5.99998 13.5913 5.99998 12C5.99998 10.4087 6.63213 8.88261 7.75734 7.75739C8.88256 6.63217 10.4087 6.00003 12 6.00003C13.66 6.00003 15.14 6.69003 16.22 7.78003L13 11H20V4.00003L17.65 6.35003Z" fill="#5334EA"/>
</svg>
