<svg width="13" height="13" viewBox="0 0 13 13" fill="none" xmlns="http://www.w3.org/2000/svg">
<path fill-rule="evenodd" clip-rule="evenodd" d="M12.7071 5.68492C12.7071 8.74372 10.2275 11.2234 7.16865 11.2234C6.0005 11.2234 4.91683 10.8617 4.02347 10.2443L1.41421 12.8536L0 11.4393L2.60926 8.83009C1.99182 7.93673 1.63018 6.85306 1.63018 5.68492C1.63018 2.62611 4.10984 0.146454 7.16865 0.146454C10.2275 0.146454 12.7071 2.62611 12.7071 5.68492ZM7.16865 9.22338C9.12288 9.22338 10.7071 7.63915 10.7071 5.68492C10.7071 3.73068 9.12288 2.14645 7.16865 2.14645C5.21441 2.14645 3.63018 3.73068 3.63018 5.68492C3.63018 7.63915 5.21441 9.22338 7.16865 9.22338Z" fill="#DDDDDD"/>
</svg>
