<svg width="22" height="16" viewBox="0 0 22 16" fill="none" xmlns="http://www.w3.org/2000/svg">
<path d="M8.1403 8.00008C8.1403 6.71232 9.03695 5.63106 10.2376 5.3473V10.6527C9.03695 10.3691 8.1403 9.28785 8.1403 8.00008Z" fill="white"/>
<path d="M3.54329 6.32408V9.67592C3.54329 10.255 3.07275 10.726 2.49446 10.726H0.195963V5.27395H2.49446C3.07275 5.27395 3.54329 5.74515 3.54329 6.32408Z" fill="white"/>
<path d="M13.585 8.00008C13.585 9.28785 12.6883 10.3691 11.4876 10.6527V5.3473C12.6883 5.63106 13.585 6.71232 13.585 8.00008Z" fill="white"/>
<path d="M2.49446 0H10.2376V4.07176C8.34326 4.37279 6.8903 6.01962 6.8903 8.00008C6.8903 9.98054 8.34326 11.6274 10.2376 11.9284V16H2.49446C1.22705 16 0.195963 14.9675 0.195963 13.6983V11.9778H2.49446C3.76204 11.9778 4.79329 10.9453 4.79329 9.67592V6.32408C4.79329 5.0549 3.76204 4.02221 2.49446 4.02221H0.195963V2.30187C0.195963 1.03253 1.22705 0 2.49446 0Z" fill="white"/>
<path d="M21.5293 2.30187V4.02221H19.2308C17.9632 4.02221 16.932 5.0549 16.932 6.32408V9.67592C16.932 10.9453 17.9632 11.9778 19.2308 11.9778H21.5293V13.6983C21.5293 14.9675 20.4982 16 19.2308 16H11.4876V11.9284C13.382 11.6272 14.835 9.98038 14.835 8.00008C14.835 6.01962 13.382 4.37279 11.4876 4.07176V0H19.2308C20.4982 0 21.5293 1.03253 21.5293 2.30187Z" fill="white"/>
<path d="M18.182 9.67592V6.32408C18.182 5.74515 18.6525 5.27395 19.2308 5.27395H21.5293V10.726H19.2308C18.6525 10.726 18.182 10.255 18.182 9.67592Z" fill="white"/>
</svg>
