<svg width="24" height="24" viewBox="0 0 24 24" fill="none" xmlns="http://www.w3.org/2000/svg">
<path fill-rule="evenodd" clip-rule="evenodd" d="M13.1129 1.50036C13.6429 1.13468 14.592 0.64926 15.2218 0.421766C15.8879 0.181165 16.9805 0.00476646 17.8337 0.000101064C18.6407 -0.00434217 19.7134 0.138286 20.2178 0.316682C20.7223 0.4953 21.4816 0.906521 21.905 1.23065C22.3515 1.57234 22.9669 2.41456 23.3697 3.23522C24.0132 4.54664 24.0566 4.77991 23.9623 6.4168C23.8806 7.83174 23.716 8.47712 23.1358 9.65969C22.7273 10.4921 21.9103 11.6367 21.2624 12.2845C20.6304 12.9161 19.6002 13.7108 18.9729 14.0505C18.3455 14.3904 15.4164 15.4097 12.4639 16.3159L7.09558 17.9634L4.08125 20.9817L1.06693 24L0.533463 23.4302L0 22.8605L3.04068 19.804L6.08135 16.7478L7.70123 11.4245C8.59233 8.4969 9.54346 5.66678 9.81495 5.13537C10.0864 4.60374 10.7226 3.7182 11.2289 3.16724C11.7351 2.6165 12.5828 1.86626 13.1129 1.50036ZM14.9297 3.65999L15.683 4.43978L14.4801 5.66167L13.2775 6.88356L12.3921 5.99513L11.5066 5.10693L12.5999 3.99368C13.2011 3.38118 13.8016 2.88021 13.9345 2.88021C14.0676 2.88021 14.5154 3.23122 14.9297 3.65999ZM16.036 9.64991L17.2573 8.42469L18.4788 7.19947L17.6358 6.3737L16.7929 5.54792L15.5889 6.77092L14.3852 7.99392L15.2105 8.82192L16.036 9.64991ZM21.5771 3.225C21.8634 3.76197 21.8231 3.84394 20.7283 4.94209L19.579 6.0951L18.7536 5.26733L17.9283 4.43934L19.1172 3.23144C20.2353 2.09553 20.3354 2.04243 20.7912 2.34213C21.058 2.51764 21.4114 2.91486 21.5771 3.225ZM16.8359 3.10237C16.9564 3.10237 17.3931 2.75246 17.8063 2.3248L18.5574 1.54724L17.5729 1.57745C17.0314 1.59411 16.364 1.65098 16.0901 1.70408C15.8161 1.75695 15.5918 1.87581 15.5918 1.96823C15.5918 2.06065 15.8226 2.35368 16.1042 2.61939C16.3861 2.88509 16.7154 3.10237 16.8359 3.10237ZM22.2325 7.55515L21.9825 8.48734L21.3315 7.86151L20.6804 7.23591L21.5133 6.37725C22.3366 5.52837 22.3466 5.52482 22.4144 6.07089C22.452 6.37459 22.3703 7.04262 22.2325 7.55515ZM20.7934 10.4844C21.2017 9.98427 21.1986 9.97249 20.459 9.20692C20.0484 8.78193 19.6538 8.43425 19.5823 8.43425C19.5105 8.43425 18.9314 8.96299 18.2952 9.60926L17.1384 10.7845L17.9708 11.5998L18.803 12.4152L19.592 11.702C20.0261 11.3099 20.5666 10.7621 20.7934 10.4844ZM16.6295 12.4718C16.9112 12.7375 17.1419 13.0292 17.1419 13.1199C17.1419 13.2107 16.6388 13.3933 16.0239 13.5255C15.4089 13.6579 14.7408 13.7661 14.5395 13.7661C14.282 13.7661 14.4299 13.5024 15.0382 12.8775C15.5139 12.3887 15.9512 11.9888 16.0099 11.9888C16.0688 11.9888 16.3476 12.2061 16.6295 12.4718ZM12.0781 12.8933C12.4978 13.1185 12.6831 13.0137 13.743 11.9504L14.9357 10.7541L14.0926 9.92828L13.2498 9.10251L12.0613 10.31C10.8865 11.5032 10.877 11.5238 11.2393 12.0784C11.4408 12.3872 11.8184 12.7537 12.0781 12.8933ZM11.3881 8.76349C10.9729 9.19337 10.553 9.54505 10.4551 9.54505C10.3573 9.54505 10.2771 9.33933 10.2771 9.08807C10.2771 8.83658 10.3909 8.17787 10.5298 7.62402L10.7827 6.61719L11.4627 7.29967L12.143 7.98215L11.3881 8.76349ZM11.3064 14.2309C10.8458 13.9452 10.2131 13.3238 9.90064 12.8502C9.58818 12.3765 9.29277 11.9888 9.24428 11.9888C9.19578 11.9888 9.11407 12.1139 9.06292 12.2665C9.01176 12.4194 8.75444 13.2743 8.49114 14.1667C8.22784 15.0591 8.0602 15.8371 8.11866 15.896C8.17735 15.9546 9.10698 15.7209 10.1848 15.3764L12.1441 14.7503L11.3064 14.2309Z" fill="currentColor"/>
</svg>
