<svg width="40" height="40" viewBox="0 0 40 40" fill="none" xmlns="http://www.w3.org/2000/svg">
<rect width="40" height="40" rx="20" fill="#1DA1F2"/>
<path d="M28.1097 16.3044C28.1097 16.4872 28.1097 16.6701 28.1097 16.8268C28.1097 22.234 23.9825 28.4771 16.4594 28.4771C14.1346 28.4771 11.9926 27.7979 10.1641 26.6486C10.4775 26.6747 10.8171 26.7008 11.1306 26.7008C13.0375 26.7008 14.8137 26.0478 16.2243 24.9507C14.4219 24.9246 12.9068 23.723 12.4105 22.1034C12.6718 22.1556 12.9068 22.1818 13.1942 22.1818C13.5599 22.1818 13.9256 22.1295 14.2652 22.025C12.3844 21.6593 10.9738 20.0137 10.9738 18.0284C10.9738 18.0023 10.9738 18.0023 10.9738 17.9762C11.5224 18.2896 12.1493 18.4725 12.8285 18.4986C11.7314 17.7672 11 16.5133 11 15.0766C11 14.3191 11.2089 13.6138 11.5485 13.013C13.5599 15.4946 16.59 17.1141 19.9859 17.297C19.9075 17.0097 19.8814 16.6701 19.8814 16.3566C19.8814 14.084 21.7099 12.2555 23.9825 12.2555C25.158 12.2555 26.229 12.7518 26.9604 13.5355C27.9007 13.3526 28.7628 13.013 29.5725 12.5428C29.2591 13.5093 28.606 14.293 27.7701 14.8154C28.606 14.7109 29.3897 14.502 30.1211 14.1624C29.5987 14.9983 28.9195 15.7297 28.1097 16.3044Z" fill="white"/>
</svg>
