<svg width="18" height="16" viewBox="0 0 18 16" fill="none" xmlns="http://www.w3.org/2000/svg">
<path fill-rule="evenodd" clip-rule="evenodd" d="M8.74003 4.25625L8.77905 4.9483L8.12875 4.86356C5.76165 4.53872 3.6937 3.4371 1.93789 1.58693L1.0795 0.668915L0.858396 1.34684C0.39018 2.85804 0.689318 4.45398 1.66477 5.52735C2.18501 6.12054 2.06795 6.20528 1.17054 5.85219C0.858396 5.7392 0.58527 5.65446 0.559258 5.69683C0.468216 5.7957 0.78036 7.08092 1.02747 7.58937C1.36563 8.29553 2.05495 8.98758 2.80929 9.39716L3.44659 9.72199L2.69224 9.73612C1.9639 9.73612 1.93789 9.75024 2.01593 10.0468C2.27605 10.9649 3.30352 11.9394 4.44805 12.3631L5.25442 12.6597L4.5521 13.1116C3.51162 13.7613 2.28905 14.1285 1.06649 14.1567C0.481222 14.1709 0 14.2273 0 14.2697C0 14.411 1.58673 15.2019 2.51016 15.5126C5.28043 16.4306 8.57095 16.0351 11.0421 14.4674C12.7979 13.3517 14.5537 11.1343 15.3731 8.98758C15.8153 7.84359 16.2575 5.75333 16.2575 4.75057C16.2575 4.10089 16.2965 4.01615 17.0248 3.23937C17.454 2.78742 17.8572 2.2931 17.9353 2.15187C18.0653 1.88352 18.0523 1.88352 17.389 2.12362C16.2835 2.54732 16.1274 2.49083 16.6737 1.85528C17.0769 1.40333 17.5581 0.584174 17.5581 0.344077C17.5581 0.301707 17.363 0.372324 17.1419 0.499434C16.9078 0.640668 16.3876 0.852518 15.9974 0.979629L15.295 1.21973L14.6578 0.753655C14.3066 0.499434 13.8124 0.216967 13.5522 0.132227C12.8889 -0.0655006 11.8745 -0.0372539 11.2762 0.18872C9.65045 0.824272 8.62297 2.46258 8.74003 4.25625Z" fill="currentColor"/>
</svg>
