<svg width="40" height="40" viewBox="0 0 40 40" fill="none" xmlns="http://www.w3.org/2000/svg">
<rect width="40" height="40" rx="20" fill="#5181B8"/>
<path fill-rule="evenodd" clip-rule="evenodd" d="M30.5526 14.7179C30.7076 14.2013 30.5526 13.8215 29.8151 13.8215H27.3765C26.7564 13.8215 26.4707 14.1495 26.3157 14.5113C26.3157 14.5113 25.0755 17.534 23.3187 19.4974C22.7503 20.0657 22.492 20.2464 22.1819 20.2464C22.0269 20.2464 21.8025 20.0657 21.8025 19.5491V14.7179C21.8025 14.0978 21.6226 13.8215 21.1058 13.8215H17.2737C16.8863 13.8215 16.6533 14.1093 16.6533 14.3821C16.6533 14.9699 17.5315 15.1055 17.6221 16.7588V20.35C17.6221 21.1373 17.4799 21.2802 17.1699 21.2802C16.3432 21.2802 14.3324 18.2438 13.1396 14.7696C12.9058 14.0943 12.6714 13.8215 12.0481 13.8215H9.60953C8.91279 13.8215 8.77344 14.1495 8.77344 14.5113C8.77344 15.1572 9.6003 18.3608 12.6229 22.5977C14.6383 25.4909 17.4772 27.0597 20.0607 27.0597C21.6109 27.0597 21.8025 26.7113 21.8025 26.1112V23.9243C21.8025 23.2276 21.9494 23.0886 22.4401 23.0886C22.802 23.0886 23.4219 23.2694 24.8689 24.6644C26.5223 26.3176 26.7947 27.0597 27.7249 27.0597H30.1635C30.8602 27.0597 31.2086 26.7113 31.0076 26.0238C30.7877 25.3385 29.9983 24.3446 28.9508 23.1661C28.3824 22.4942 27.5298 21.7709 27.2716 21.4092C26.9098 20.9442 27.0131 20.7376 27.2716 20.3244C27.2716 20.3244 30.2425 16.1391 30.5526 14.7181V14.7179Z" fill="white"/>
</svg>
