<svg width="16" height="16" viewBox="0 0 16 16" fill="none" xmlns="http://www.w3.org/2000/svg">
<path fill-rule="evenodd" clip-rule="evenodd" d="M1.55442 1.55442C0.5 2.60883 0.5 4.30588 0.5 7.7V8.3C0.5 11.6941 0.5 13.3912 1.55442 14.4456C2.60883 15.5 4.30588 15.5 7.7 15.5H8.3C11.6941 15.5 13.3912 15.5 14.4456 14.4456C15.5 13.3912 15.5 11.6941 15.5 8.3V7.7C15.5 4.30588 15.5 2.60883 14.4456 1.55442C13.3912 0.5 11.6941 0.5 8.3 0.5H7.7C4.30588 0.5 2.60883 0.5 1.55442 1.55442ZM3.03128 5.06253C3.11253 8.96253 5.0625 11.3063 8.48125 11.3063H8.67506V9.07503C9.93131 9.20003 10.8812 10.1188 11.2625 11.3063H13.0375C12.55 9.53128 11.2687 8.55003 10.4687 8.17503C11.2687 7.71253 12.3937 6.58753 12.6625 5.06253H11.0499C10.6999 6.30003 9.66256 7.42503 8.67506 7.53128V5.06253H7.0625V9.38753C6.0625 9.13753 4.80003 7.92503 4.74378 5.06253H3.03128Z" fill="currentColor"/>
</svg>
