<svg width="24" height="20" viewBox="0 0 24 20" fill="none" xmlns="http://www.w3.org/2000/svg">
<path d="M23 5.02521H8C6.35223 5.026 4.74496 5.48746 3.39801 6.34648C2.05106 7.20549 1.0302 8.42011 0.475039 9.82423C-0.080117 11.2283 -0.142459 12.7534 0.296538 14.1908C0.735536 15.6282 1.65444 16.9078 2.92757 17.8545C4.20071 18.8012 5.7659 19.3689 7.4091 19.4799C9.0523 19.5909 10.6933 19.2398 12.1076 18.4746C13.5219 17.7093 14.6405 16.5674 15.3104 15.2049C15.9802 13.8424 16.1687 12.3259 15.85 10.8627L23.197 9.53277C23.4235 9.49158 23.6273 9.38067 23.7737 9.2189C23.92 9.05713 24 8.85448 24 8.64538V5.93025C24 5.69022 23.8946 5.46002 23.7071 5.29029C23.5196 5.12056 23.2652 5.02521 23 5.02521ZM8 15.8857C7.20887 15.8857 6.43552 15.6734 5.77772 15.2756C5.11992 14.8778 4.60723 14.3124 4.30448 13.6509C4.00173 12.9894 3.92252 12.2615 4.07686 11.5593C4.2312 10.857 4.61216 10.212 5.17157 9.7057C5.73098 9.19941 6.44371 8.85462 7.21964 8.71494C7.99556 8.57525 8.79983 8.64694 9.53073 8.92095C10.2616 9.19495 10.8864 9.65895 11.3259 10.2543C11.7654 10.8496 12 11.5495 12 12.2655C11.9987 13.2253 11.5769 14.1455 10.827 14.8241C10.0772 15.5028 9.06048 15.8846 8 15.8857Z" fill="#5334EA"/>
<path d="M15 0.5H17V4.12017H15V0.5Z" fill="#5334EA"/>
<path d="M23 0.5H19V4.12017H23C23.3514 4.12022 23.6965 4.20471 24 4.36498V1.40504C24 1.16501 23.8946 0.934809 23.7071 0.765081C23.5196 0.595352 23.2652 0.5 23 0.5Z" fill="#5334EA"/>
<path d="M8 4.12017H13V0.5H8C5.879 0.502156 3.84555 1.26567 2.34578 2.62303C0.846002 3.98038 0.00238211 5.82074 0 7.74033V8.54107C0.756737 7.21066 1.90347 6.09442 3.31456 5.31463C4.72565 4.53485 6.34666 4.1216 8 4.12017Z" fill="#5334EA"/>
</svg>
