<svg width="40" height="40" viewBox="0 0 40 40" fill="none" xmlns="http://www.w3.org/2000/svg">
<rect width="40" height="40" rx="20" fill="#FF0000"/>
<path d="M23.9106 8.73792H20.5542C17.2561 8.73792 14.4592 11.2482 14.4592 16.1221C14.4592 19.0459 15.8137 21.2016 18.2277 22.2651L13.7231 30.4171C13.5757 30.6832 13.7231 30.8895 13.9585 30.8895H16.049C16.2257 30.8895 16.3439 30.8307 16.4027 30.6833L20.4952 22.6788H21.9674V30.6833C21.9674 30.7712 22.0554 30.8895 22.1732 30.8895H23.999C24.1756 30.8895 24.2344 30.801 24.2344 30.6541V9.0332C24.2345 8.82644 24.1169 8.73792 23.9106 8.73792ZM21.9673 20.7886H20.7307C18.7876 20.7886 16.9035 19.3709 16.9035 15.8267C16.9035 12.1342 18.6699 10.6281 20.4656 10.6281H21.9674V20.7886H21.9673Z" fill="white"/>
</svg>
