<svg width="16" height="12" viewBox="0 0 16 12" fill="none" xmlns="http://www.w3.org/2000/svg">
<path d="M15.6703 1.87772C15.486 1.14347 14.9455 0.564678 14.2602 0.366969C13.0081 3.8147e-06 7.99982 3.8147e-06 7.99982 3.8147e-06C7.99982 3.8147e-06 2.9917 3.8147e-06 1.73965 0.353056C1.06748 0.550556 0.513868 1.14358 0.329493 1.87772C0 3.21879 0 6 0 6C0 6 0 8.79523 0.329493 10.1223C0.514063 10.8564 1.0543 11.4352 1.73975 11.6329C3.00489 12 8.00002 12 8.00002 12C8.00002 12 13.0081 12 14.2602 11.6469C14.9456 11.4493 15.486 10.8705 15.6705 10.1364C15.9999 8.79523 15.9999 6.01412 15.9999 6.01412C15.9999 6.01412 16.0131 3.21879 15.6703 1.87772ZM6.40529 8.56938V3.43062L10.5699 6L6.40529 8.56938Z" fill="currentColor"/>
</svg>
